<mxfile host="app.diagrams.net" modified="2021-05-13T16:01:56.068Z" agent="5.0 (Windows NT 10.0; Win64; x64) AppleWebKit/537.36 (KHTML, like Gecko) Chrome/74.0.3729.131 Safari/537.36" etag="MQjKkQRUQT76cZIL5nzM" version="14.6.13" type="github">
  <diagram id="s9ck1QsH0hMPK7p8k_lF" name="Page-1">
    <mxGraphModel dx="1038" dy="556" grid="1" gridSize="10" guides="1" tooltips="1" connect="1" arrows="1" fold="1" page="1" pageScale="1" pageWidth="827" pageHeight="1169" math="0" shadow="0">
      <root>
        <mxCell id="0" />
        <mxCell id="1" parent="0" />
        <mxCell id="BGL98zv2xkj8la9WDETW-13" style="edgeStyle=orthogonalEdgeStyle;rounded=0;orthogonalLoop=1;jettySize=auto;html=1;exitX=0.5;exitY=1;exitDx=0;exitDy=0;entryX=0.5;entryY=0;entryDx=0;entryDy=0;curved=1;" parent="1" source="BGL98zv2xkj8la9WDETW-1" target="BGL98zv2xkj8la9WDETW-9" edge="1">
          <mxGeometry relative="1" as="geometry" />
        </mxCell>
        <mxCell id="BGL98zv2xkj8la9WDETW-1" value="无锁" style="rounded=1;whiteSpace=wrap;html=1;" parent="1" vertex="1">
          <mxGeometry x="100" y="540" width="120" height="60" as="geometry" />
        </mxCell>
        <mxCell id="BGL98zv2xkj8la9WDETW-2" value="&lt;b&gt;&lt;font style=&quot;font-size: 18px&quot;&gt;锁升级过程(目前简化版)&lt;/font&gt;&lt;/b&gt;" style="text;html=1;strokeColor=none;fillColor=none;align=center;verticalAlign=middle;whiteSpace=wrap;rounded=0;" parent="1" vertex="1">
          <mxGeometry x="10" y="20" width="220" height="50" as="geometry" />
        </mxCell>
        <mxCell id="BGL98zv2xkj8la9WDETW-3" value="" style="shape=image;verticalLabelPosition=bottom;labelBackgroundColor=#ffffff;verticalAlign=top;aspect=fixed;imageAspect=0;image=data:image/png,iVBORw0KGgoAAAANSUhEUgAAA2QAAAF0CAYAAABMofp6AAAgAElEQVR4AezdB5RtV33f8SO9kZ56l1BBDXUhhCoSKiAjBAjhAiaJHUPi2Elsx0nsrMResZfjEGdl2bGX48RJFnFC4hBiTDEgZIkAAtSRBOq99957eZKesj7b+j+fd3Vn3rxp987Mb69159x7zq7f/T97///7v8+ZDV5//fXXu4Hw9NNPd6+++urA2fwMgdER2HLLLbsXX3wxcjm6LkjJ80Bgww037DbbbLMm26+99to8lJAslyuBlStXditWrGiyNWSaX65Y0u4RE9hkk026DTbYoHvppZe6yOWIOyPFNwLkcdNNN+1KNkeFZWJYwc8991z3wgsvDLuUcyEwEgJulmeeeaYN4iOpQAoNgXkgsNFGG3U+FsFWrVo1DyUky+VKYKuttuoYZU8++WS3evXq5Yoh7R4zAttss00zyIx5kcsx65xlWh0G2fbbb9/GS99HFYYaZFYtsnIxqi5JuZMRiFxORibnFyuBGmcj24u1B8e33iVTdRzfmqZmy5FA5HI59vp4tnmURlifyIb9H/keAiEQAiEQAiEQAiEQAiEQAiGwcARikC0c65QUAiEQAiEQAiEQAiEQAiEQAmsRiEG2Fo78CIEQCIEQCIEQCIEQCIEQCIGFIxCDbOFYp6QQCIEQCIEQCIEQCIEQCIEQWItADLK1cORHCIRACIRACIRACIRACIRACCwcgRhkC8c6JYVACIRACIRACIRACIRACITAWgRikK2FIz9CIARCIARCIARCIARCIARCYOEIxCBbONYpKQRCIARCIARCIARCIARCIATWIhCDbC0c+RECIRACIRACIRACIRACIRACC0cgBtnCsU5JIRACIRACIRACIRACIRACIbAWgRhka+HIjxAIgRAIgRAIgRAIgRAIgRBYOAIxyBaOdUoKgRAIgRAIgRAIgRAIgRAIgbUIxCBbC0d+hEAIhEAIhEAIhEAIhEAIhMDCEYhBtnCsU1IIhEAIhEAIhEAIhEAIhEAIrEVgYq1f+RECIRACIRACIRACIRACIbBgBF5//fXuxRdf7J5++unulVde6VasWNFtttlm3RZbbNG99NJL7domm2zSfm+4YXwpC9YxC1hQDLIFhJ2iQiAEQiAEQiAEQiAEQqBP4Pnnn+8uuuii7qGHHup22mmn7v777+8YYMccc0w7d+ONN3YHHHBA++38YGDI3XLLLe30/vvv32211VbdBhtsMBgtv8eYQMzsMe6cVC0EQiAEQiAEQiAEQmBpE7jrrru6W2+9tdtvv/26E044oXvnO9/ZPfHEE929997bbbvttt1zzz3XPGdTUXj55ZebJ2316tVrRWOsfeMb32hG3uC1tSLmx0gJxEM2UvwpPARCIARCIARCYKEJvPbaa83z8Oqrr3a77bZbZxvYk08+2RRf33fddde2bWyh65XylicBhtLKlSs7x4022qjbbrvtuomJiY58Ou8cz9hkXi9bGw8++OCWftA7xtvGe8ZzZmtkwngSiEE2nv2SWoVACIRACIRACMwDgdtuu615I+68885uxx137E477bSm9PJQXHPNNd3222/fffjDH+423XTTN5VOQT7//PM7W8ze8573ZGvYmwjlxEwI7Lvvvk3uNt9882Z8vfDCC51Fgy233LItDFgkeOSRR7rvfOc77TwZPfzww9tzZldddVXHw/bUU0+1xQUeNrJrgeHqq6/ubHd89tln25ZIv6XbY489msE3k7omzfwQyJbF+eGaXEMgBEIgBEIgBMaQACWXQssbQekVKLy77757O/IiTOVJ2GGHHTofL17oB3l9/etf7374wx92q1at6l/K9xCYkoAXePDKbr311m2r4vXXX99+83ptvPHGbbviHXfc0a6TvSuvvLK7+OKL2ws/xDn66KOb98xCQW1LlNexxx7bPGc8bEcccUR3yimnxBibsidGdzEestGxT8khMGcE7DP3oQTYumALjpVfCsLNN9/cVsr6Cobre++996QrZB4stn9dsHJnQkgIgRAIgaVAwEsTjIfXXnvtmi1gtoLZIsYw46VwHBac33nnnZsibFysLWTGWmPwfffd14y9YWlzLgSmIkCWGFSXXnppk6t3vetdbT7n3SKve+21VzOuyBov7wMPPNAMNQsMDDry2w9k1TbHklPfyfbgQkI/Tb6PjsDavTe6eqTkEAiBGRAwSFs1O/fcc9vqrod/rc7aovChD32oDdC24Fgds/pWSobtDKVIDCvW1ojzzjuvPUy85557DjXITBwXXHBBZ2uFiaOfvzw9YKyMGHPDCOdcCITAqAgYl+ozrA62fnkJgteNex7HFi9GGCX4uuuu6x577LHmqTDGGlspyOecc86abWO2hTHOPLPzjne8I2PgMMg5txYBc7kXd3jTotffv/vd726Lqs5X4PEyd5tbGVV9L+xU83mlz3G8CcQgG+/+Se1CYEoCBmbGF2+WZx54xaymXXLJJW1wp0zYvnDggQd2Bx100JqVMYbZVAP4Pvvs033/+9+fMo4VOW+EYpBZoevnp15nnnlmU2K8tndw5W7KRuViCIRACIyQAC8Xhfgtb3lL9+1vf7uNpaeeemrbLWCByrZExlptDTO+ve9972tj8Xe/+91mhB111FHNO1GLYCNsTopeBATIE8/Yo48+2p188slN9mxbNJd6wYfA8GegOZK96cpWecjkYSGVjkBXyGLpeAnGcJ/8eNUxtQmBEJiEAEWA0vDWt761raoZoG1LMGj3V9bEs6JWn77xNCzrGuin2rojD4aY8qwSVzBR3H777W07hQfg+/WoODmGQAiEwLgSoKx6Lofx5Xmdxx9/vG0NMy4aS30GQ39srXg1jg7Gze8QGCTghTLmTZ5YHjIvnOFp9WKOMvwffPDB9o+jXSOTdqWULIpT8QbzZtCRT55d23TtolFGwngRePOoMl71S21CIASmIGAwPuyww7pDDjlkzdYZr7j1jARjyqqbgfeKK67oLr/88vYKXc+P2WK4zTbbrOXVGlaMyeDLX/5yS2c1zYPDvGcmD6t3njXjhbN1p95IZvukCcP/PjH42+fueTUrxjV5DCsr50IgBEJgHAgYyyw0lWFVnomq27oWtCpejiEwXQJ2mpA58+XDDz/cFjIZWOZyu1HMoRY+L7zwwuYhM+97SYc0l112WZtzLYDabnvGGWc0ncDOGGksKhx66KHt8QayLa08E8aLQAyy8eqP1CYE1puAAdfHYOwFHrY8eLOS58kYRVZ7GWf+0aTnzQzofjPK1rVlwYqcrToGdFt3rKx5O5lnI2xXtHXH9od+eO9739teKnLWWWe1VWZbf5RjhS4hBEIgBMadAAOsgnF1umOXcbiMNem8itwOhsH/C1V55xgCRcBip0VLO0pKhlyzKOD3Rz7ykXasHSfO1TXPODKyBq+Vh9aLvmyprevO17UqP8fRE4hBNvo+SA1CYNYETP7+8aM96AZ1z4tRDhhlJ510UvsfO7Xq6/myu+++uz2ovi6DjDHHI2ZAt+2BR8we9NoCoYzBUFt3nDfo84pNV6EZzCu/QyAEQmCuCXgZgi1fvBLGJsf+WMjLcM8997QdBl5wxDth/DTO2nXguR5Gm+/ykpaCbAu3/Or/P3kW7cQTT3zTM7Zz3Z7kt/gJrGuOnGp3ybrSks11xVn8BBd/C2KQLf4+TAtCoO099xIOb/SyfdE2xVdeeaUpDN4KZpui19evXLmyGWr9FeCp8JVni2FlQK8VtqnS5FoIhEAIjDMBW67tFthll11aNb3ZjofC9i/Gl+1ctl0zwOwksCOgztmFYBw1NtoxIH4tgNleZneCNywyyo488si2uyDeiHGWhtQtBMaDQAyy8eiH1CIEZkzAnnP/INIWQsaYfeeMMw+k+/6DH/ygKQk8Xd7GaDXYtemsmElfRpiVYIqF1bZ1Bat5PuLyqNm6s8ceezSP3XTSryv/XA+BEAiBmRJgQB1wwAFrJa/x8D3veU8bt4x9Qo15xi3Gl7GzH1wvg0scW8c8ryPIM+Ndn1a+h0AITEYgBtlkZHI+BBYBAcYOY8zRau5VV13VHuq94YYb2qqtFV9vbbJa63/ouG4bozeIDdtu2G8yJYMB58Uc8rZ1RzrPRCjPs2PPPPNM277jIWTKh62MFBCryZ6bsGWHp87bnawyRznpE873EAiBURDoG1GD5ZdhVkZW//pU6SredOJU3BxDIARCoAjEICsSOYbAIiRg8rdqW4YQ44cx5H9/efkGo+gDH/hAe2aM0WR11/ZFn1I8hjWbd8uzaPL3zyqF4447rnnhbNVhnHkOTT48aAw3aby5Ub6MvuOPP769MUoe0jIOE0IgBEIgBEIgBEIgBNYmsMHrtR+pd96qtm1NCSEwLgT8ny1eFg9RJ6xNoL+tsH+FIcQj5Rav7Teu1/l+3GHfK00NEfKSVhjM07n+db/79ZpumS3zZfSHl9KLU8i2LaEJITBXBCzGeNbJyyvqXp6rvJNPCMyUgMU6c4UXp0QuZ0ox6eaSAP3EAvbWW2+9RseZy/ynm1c8ZNMllXghMKYEykiarHomv6m8YZOlmyrf6eQ5VfrJysz5EAiBEAiBEAiBEFhuBP5quXu5tTrtDYEQCIEQCIEQCIEQCIEQCIExIBCDbAw6IVUIgRAIgRAIgRAIgRAIgRBYngRikC3Pfk+rQyAEQiAEQiAEQiAEQiAExoBADLIx6IRUIQRCIARCIARCIARCIARCYHkSiEG2PPs9rQ6BEAiBEAiBEAiBEAiBEBgDAnnL4hh0QqoQAiEQAiEQAiEQAkuZgH/z4f9VegPvpptu2r322mtLublp2yIhMJ23Ri9EU2KQLQTllBECIRACIRACIRACy5jAlltu2W2xxRbNIHOs/3G5jJGk6WNCwCLBqP9VTwyyMRGGVCMEQiAEQiAEQiAEliIBXojyRIxa8V2KfNOmxU8gBtlAHz733HPdrbfe2m233Xbd7rvvvmYFxwDyne98p9tqq626gw46qLnby6I2yFS4+uqruxdeeKE74IAD2n/9vummm7pnn32223PPPdt/Ai93fcUfPEp75ZVXdhtvvHG33377tTz6+Q/Gz+8QCIEQCIEQCIEQGGcCvGF9j9jq1auzZXGcO2wZ1a2/WDDKZscgG6D/5JNPdhdeeGG31157NWPo0Ucf7e64445mHN1///3dQw891G222WbdFVdc0R111FHd/vvv39kXXeHBBx9s8Q888MB2ioF3zjnndCeffHJ36aWXdjvttFN38MEHT2povfzyyx2jbvPNN+/e+c53thUlGTn/4osvTpquys8xBEIgBBYbAeOksXXbbbdtW5qeeeaZtrBlYczWpixKLbYeTX1D4M0E+gbZ008/3dG3GGYJITBKAuYXc83WW2890m2LMch6UmCweOSRRzrKwcqVK7uLLrqoGVuPP/54d/vtt7eYPFeXX355t/POO3e77bZbe0BVmlWrVrXf8tC5DKoVK1a0DjbgvPWtb21G1cUXX9wGoHe/+91tdeiuu+7qXnnllTUrR8p+/vnnm9HHu8YLJ0+GnnKOO+64ZizG5d/ruHwNgRBYtAReffXV7qqrrmoLVsZFi1w//OEPu9tuu617//vf33YbGEsHwwMPPNDdeOONbdeCRS4LZTHcBinldwiMLwG6UQyy8e2f5VKzcdGnY5D1JI5icP3113e8W0ceeWQzhkzwzu2yyy7NKOOl2nvvvZuBZfuhwKCyndE2Rdf7oRQEXrRDDjmk43HzYCsjS/odd9yxlVNethtuuKENUI899linPrYtUkZsefRGIkrHuAhPv535HgIhEAIzIWDnAYPMYhTljEfMToJrrrmmjXnGymHBotkmm2zSFs8Gx8T77ruvO/fcc7uPfexjbcwcln4pn7NwaJ7BxRxjLkkIgVETcL+WTjTquqT8EBg3AjHIej1CMXjiiSfas2MMIsbT9ttv3zxiVm0ZRwYTz3kxwGxD9DwZY82kZ1XXdYbT3Xff3Qwu23AoGffee2/zlvGsWfndZpttmlHnKEj30ksvNaNvhx12aN42WxfrWTaviK147Uv+hEAIhMAiJ2AB67LLLmu7B8oL5miBisHlOJkC53lei2Pi+VQ8C2R2NPCgLdfXamNjzmCQUYITQmBcCNR96j6v7+NSt9QjBEZJIAbZG/QZWVZpGVaeGfPMFiPM1kMrt7W31OTGwDKQ1IRn0qvnwigBthaKZ5WyViY9c/aRj3ykeboYcAwxefhYAbblUfm2Jnp27LDDDuu+973vtefPTjzxxLZNsRSWUQpMyg6BEAiBuSBg3Lv55ps7i1/77LNPe5lSP19joxcsXXvttW2MtEvAuGhc/e53v9vGWS9MMl7WjgaLahbGjOGMvTPOOKMtjFk8s7gmz+UUJvMuLicGaet4ESiZrON41S61CYHREYhB9gZ7BhGjigF25plntpVF3qwyqEzkVl3FY7T53d8ms8ceezRvFoOK4WTLjS2JVmvF8wArI8+zZNLWR/EeYOcN40U74ogjmhLiHCXDc2Rnn312y4+BKF/GnBXhhBAIgRBYrARsK7QIZSu3bYqMqH6wY+DOO+/sPvCBD3QPP/xwd8kll7TLxsiTTjqpk/4b3/hGG1dLubPYdcopp7TFLGPqqaee2rbuGYuNucsl9D2D5izGaTFaLgzSzvEjQBeyoOJe9Kx8nh8bvz5KjUZHIAbZG+wZOAype+65p20dtF3RMwgmszLKDB4mdttoTHh1XhYMLq+rdzTx1eRvBdebwxhjPGcMsjLkvCzEiu5TTz3V8mKAMezk7+UfDLDjjz++edWsFFv59WZHzwYkhEAIhMBiJsAYs7XOQpit3TVmVpuMo4ceemjblujZWc+U8aYZhwe3KVYaY6vx01F+vvsst9BXdM1htuL3jbTlxiPtHR8CFpTdn1kkGJ8+SU3Gg0AMsjf6wQTv2S2TlgncoHHMMcc0g+m6665rSoBXtPKOMdwYY4wsE59V3PPPP789TyYPXjKBd8wWRttxTIo8bP3/LUbhYKDxxPGIWQH2AhH5SqMsdXnLW97Sttv4zoO33BQMRrDgWN/bifyZEQGKalbLZ4RuzhORZ/3haLxYTv1iIUqbv/Wtb7Vt4VbMGV2OxjnBYpbx1piHU9/Q8DthegTI1XKSrelRSaxREYg8jop8yh1nAjHI3ugdKzZWa22TKQWAa71+e46MEeYlG54ds2LLiKMg8IIx4Gy9YbSVouDlHcK+++7bFIpvfvObbVuOZx6U4ZkGz675v2fKko/8bUvkDauVJF43H29/9AxF5T/OgjVXdaOoMnLxYaD2vZJzVcZyy4es9xXb5db+cWqvcUB/kHHe8uXkxfipn/qpNV1xyy23NMPMGHr00Ue3Z8tcrPsdF0ocVusKxkfjRQU7EYyzu+66axt363yOIRACIRACITAuBGKQ9XqiDB0Tv0nctkHG0Uc/+tH2ZkRKrDgMqdNOO60ZCAwGW27e9ra3rVnVlaVVXt4u53ffffeWzpGh5TkHXi9KBu+b7YgUEcFKsG06PGeUNZ43Rpo6XXDBBS2d/39Wde1Vf0l+xZfh61h8lmRD06hlTWA6hsZSA1SefkaX7UuOxrn+2MZQ8zIP/2/MeMmowkrc2qHgfBls0horeNYcve3WxyKasdyYmhACIRACIRAC40YgBtlAj5jQTd4UhHrLIsPKA+TedugZL2/9shXRBG9bo8m/ttTIzvZED5RTHKSpf1jqnzp7Xf5f/uVfdieccELbqujZCUabrYzy5GGzUi6tbYx+e2NjbZ/kNesrLAPVX9I/KWuleC3phs5z4yilFhfwTBgdAfexvnBczn3hDbSe3bUIZTz0LK632np5BzbnnXdeM668KdH/emRoOed5MotVnvc966yzumOPPXaNweZ1+Icffnh7KZKdD773vWaj6/WUHAIhEAIhEAJvJrDB60M0AcaHLR7LMVh59UYvRhEjy1ZBgVeKMWZSt43RP3Dm3apX0tcKN0XBcxBvf/vbm9fLVqS6BrW8paV87LXXXk3hoHQwNCglnqvwu5Q05xlh4lLeSoFbLn2jDzxjx0jGwsPpy+1Zm7nsa3JlAcEW3HCcS7Lrn5exxL1Nxo07PDlkfLkFbe5voTVektM6Z9z02/kaS8ub1mdlbKzr0si30i63cZNBW28Ddq97odRylK2+fOT7eBAw/7if6Tp1j49HzVKL5UrAvGHnW/17q1FxiIdsgLzVV9tidI5JX3CO8lSTPePAtkJeLd/rvLief3CNV8vHwFPBd1618qj10ynDizwoEIOhlJHB88vlNybFhTHskzAzAmSpnpUMx5kxnKtUfS9lyfdc5b2Y8qmFpsE698fHwWvGy6kCOV9XnKnS51oIhEAIhEAILCSBqWe1hazJGJVlMmdMUZJ8HxasapvwB6/bnshIGzxfeVAyPBM1LEylgAyLv1zPLWfldbZ9PiiXYTlbokkfAiEQAiEQAiEQArMjsO5XVs0u/0WdelB5HWzMZNcnOz+YPr9DIARCIARCIARCIARCIASWN4EYZMu7/9P6EAiBEAiBEAiBEAiBEAiBERKIQTZC+Ck6BEIgBEIgBEIgBEIgBEJgeROIQba8+z+tD4EQCIEQCIEQCIEQCIEQGCGBGGQjhJ+iQyAEQiAEQiAEQiAEQiAEljeBGGTLu//T+hAIgRAIgRAIgRAIgRAIgRESyGvvRwg/RYdACIRACIRACIRACCwtAv7xtTdub7755mv+J6J/zv7kk0+2f9K+5ZZbDv0XSdK9/PLL3RZbbNH5N0ozfWv3888/3/n4F07q4P89ThZWrVrVPf300+3/7Yrr94svvtipo3/xNNM6TFZezg8nEA/ZcC45GwIhEAIhEAIhEAIhEALrTeD888/vvve97zUDjBF2++23dy+88EJ3zTXXdN/85je7hx56qLv22mu7u+66q3vppZfa/71VyE033dR9+9vf7u6+++7u1VdfHVqu+P00wyLdd9993VlnndXymyyfSvfII4+0Mi+//PKWL0Puggsu6K688sr2u+LlOL8E4iGbX77JPQRCIARCIARCIARCYJkQeOKJJzoG0Z577tm8XYyv2267rXnGGEeuM4IYX0cddVTzQJUXauONN+6effbZ5qVidN18883te6HjZbv//vub9+y4445rnrS61j+uXr26e/zxx9cYeq4p+/XXX28euypPvAceeKDV57DDDutWrlzZrm+44YbdpZde2u27777Nk8drxss2laetX36+rz+BGGTrzywpQiAEQiAEQiAE5pDAK6+80t17771vUhgpoLZP7bzzzt0222zTURTXJ1A4KcS2f2211VZrpZcvTwQltK9oqgvl9a1vfevQbWO2lFGqbSvzoeSq+8TERLfTTju1bV7rqiOFXTlvectbhm5d66e3nYx3ZbvttmvbykqZfvTRR9tWM+e33nrrtdrQT5/vC0vgzjvvbHJm+x/50l/kQp+TOcaN7/vvv3+39957tz7lRXvuuee6Z555psmFdPr9gAMO6Lbffvu15JbhJM+SWfLI+Op7wh577LFmANoCqSxxGV5k7pBDDum23Xbbliejj7GoDPL74IMPrtlSueuuu3ZkTN148rRhn332GXpPLCzhpVlaDLKl2a9pVQiEQAiEQAgsGgKUSlumGFzvete7mpKq8vfcc0/3wx/+sDv66KM7imgZZAytW265pSm4DKLJAiWXJ4LRcsoppzSjrAwaCu+FF17YlEzKMYVUuP7665uBddJJJ7VrpfhWGbwbtqPxgLz73e9u6R5++OHuuuuu64455pimRFdelWbwePHFFzfl+OSTT27P+VSdBuNRoOXLU3L88cd3u+++e9v+xkClPF9yySWtTJwo5Nrh2Z/J8hvMP7/nloDtfowX/XT44Yc3eSWrZHvTTTdtHrMqUTzPeDGQxLEwUEYVY26XXXZpfUmW+v1JHsmgRQbx6p4Qp575chQclSGN/Nwryqn8yK0PWXbedfU86KCDWp2ksyiy1157tevrkutqW47rTyAG2fozS4oQCIEQCIEQCIE5JMDwsJpPeaQUlsJIQWWsUTzrnGIpobwLFFlKpyOjxfM3FM8PfehDzfgS99hjj21pBxXb8jzJX6j8eTB8p5jWuRah65pyykBi6PFunX766c1zoD4MIV4IhhKvAwOKYqtcHjVptM93Hoy3v/3tLT/eDUG7XdNW3gnKMA8G75v8Xb/xxhubx8IzPowyedrCpkzelFLOq745LhwBMsg7pg/JjufIGDO+M5h32GGH7n3ve1/rV/1/7rnnrjHALBiQO/1J5skd+bR9sb7zVPFSlUHGy8Xo46UlC0LJK5kiC64pl+yQT/LnvHjK80ybo3ugZFM8Hlfx1JvRT44ZmYy2hPkhEINsfrgm1xAIgRAIgRAIgfUgQKGlwDJCKJACRdH3UjT72fWVQ9uyvIRAHhRZn3Vt4xNX3oxBW8nKO1HHYWXaUkZJ9WwNZZcR+Y53vKN50krRveGGGzqffvo77riju+KKK7oTTzyxKbqeHbIFkzKsfEHePHYUX0o0RZ5yr4z99tuv1U99GWsUdYq5NvBwqM/BBx+c7WR9AVng77WocMQRRzRDxzZTXlb9xAAjD+SAAc2AIuu1SOCavmZ01cs/GFs8wwylH/zgB80zyojnrSpZk7e0yiYH0pKR2nronIUK5fPe8TKXsU+OB9/EaKsk7xtPL/mz3Vc8ZfbleYHRLoviYpAti25OI6dDwMRW+7vFN1AakBwNcAY6k6dgRda1mswNrB7G9UlYfwLFvhQTk4xJSHDOdb/1RUIIhMDSJWBstfJvfBUokpTPyYKxgQfpoosuagYOQ8U44dytt97aDBueNMaTvIcFW7/q+SzXjTXDlE9lMbSUUcag8YlXxPxQ9aQMi2scq2COoPzy3qmLUPHFFeo15+YR5TuvDTxmb3vb29bMOba6KY8nQ14MT+cYdLxy+A2rfyskf+aNAPliMExI5joAACAASURBVOlX214Z9vqcvOgv/WuxgUzrT/JBh6iP8+SEbJFhckS2GOT6Vn68s64x2vvy7Jx0npMsXeVjH/tYuyec32233VreZEb91ItseU5S3gK59yzZVVdd1Yw2deRpkye5VUbC/BEI3fljm5wXGQErQ1zzJrIaSK0mWcm0ynTOOee0AYlR5rrnHHbccce2cuXBV88S2L9fk2w136RqxcngatI3kA7GqbjL9WjS8UYnExQFx4RildHkYNXb5PHe9763TR6D7ExgVhytLlp1tKVjMM5y5Zp2h8BiIlBjr21/tbjlvqZQukY5NIaWIsp7Rqn0fI77nkfBWGscOfDAA5t3jVfKdR4m3oYyeoqLscL4YgwphdP4wyA0diuTJ0uZxnmvLzfmUGzVSR08fyP/Ss+bwAtBkRWnH6Q13jlf7dBG3xlSQo1f2sI7oT2eOaM8+24+sniovdqJyZe+9KU1RuVgmf3y833+CDCsGF8MHP1DHsgnI8xWRPKg/4SSFbInHTkiW+SOYXTooYc2o+2yyy5rcxujW2CAkwVl8Ii6NwQyQx8hG/qfZ4vOYRvrO9/5zla2eCUbjryq5Fgd6xpZot+QUboKmZdvyXuLmD/zQiAG2bxgTaaLkQCDwCDqIWuD29lnn91dffXV7TkFq1JWr1wzYHpOQfyPf/zjbWC1gmWiNbAOBgOfCd5WBcaGlaqacMU1GdvHbXIdNoEP5rcUf5tgTAL212P43e9+t7HHmwFskqtV5GHttz0JX0qNyaMfrBxTto488sg20fWv5XsIhMDoCLinbTU0Bhp7GSSUUQqssVKguDJu3N+UTav2FmuMF1by3fvubcqjsbkUTmOBbX8UWM/yGMs9B+O68YCCbHuY58AYacqvcZnyaTxnzMnfSxcYXJ7fki+l2kce2qAexvhSso1h0jGonOuPScpRF2VZ7HO0TZEHwu8K2ie9tlGK/c+qei7O+KjuuHlhCYUbL3WrOlQ+OS4cATKhHy0M6mO/Leqaw/Slo34ipyVr+pm8WITwnczSJywCMNKksyXWd88luhcYcTzCZJv3VyCD8hRH/gx1Bpntiu4Z9xmvsfuk7hVvTCSPdc/Ix70gH+W6T8i1hebBhYyFo7p8SpoYpkA6N+z88sGSlo4Lgb4sDn6f6zpSAgxMFAKDIu8Mr5nztefaxGrSE8eg6LuBqo7qNOzesbJpkq/BruIYgK2AGSwpC+LMZyiG/eN8ljfdvE1UJgGrfbhTzEwGzlkpd75WAotd5S2OlT6ToAlKH1YcfWR1XB+aGOt8pR3lsd8H/e+jrFPKXhoESp60pr47jltwrxpTrcpTVH2MtYIFMcrmCSecsObeZySVMcRIoagaMy2WucdrrDbOUiTlJ57nYbxh0bgtKAOPeh2+cspLrzzeeIYNY0s833nKfOcNYxj6ziAyhlv0UTcKsLGesWS80j7jurj1kafxTp7abfxST3GFiqedFGkKszbIX7nmCsqycn0YhfKSXpyqc8tsDP9oX7+dY1jFWVVJX1TQP/qO7JjTyASdgjeXzsBo2mOPPZpM6zseXPOeQJYtAJjbbIO0KCyYD6UjBzxbFngZcBaIecN4zsgAg+7UU09t8d0L3lRKr/FPqc2VH/zgB9fSN0ruyKRFCnWUr3tGfPJYfdcqsoT+VNvrONi0ujcHz8/174lhBTk37PxcF578QmBdBPqyOPh9XWnX9zpvjAHU1gCDoYnQShMl36BnEDRoWpGk6NsuYFA1obqRbS0xMRu4ahVKPgZSEzSlgWJggNUWyoBVLXvNpTegMkbkazCdj3uwzxCf+ShjfbmL//73v7+xxd5KIG7FHl8TjMnH8xsmNQqUlUiTD++iIy8aZUpfaZcVdavKVgxNYt5KZrIxuY3Dal/1RfVB/Z4Jv6QJgT6BkqWSLdf63/txR/3dfW78M3bySBljGTWOAgXXx/1tLChDh8IoGLO/9a1vNQWSQmo1X2D0UH4tyPAgGXulF9z/AsPGGGyMVwdl4qQ8Yztl2phhTKfM+ke88pSPeMadSmdOYFgxkIxf8vLsl7Ti1sdY5iO+Mcp5bajr/aN4jD75VRr1Njf1j1UGRjV2ymdcQ7+N41rH2daL/DFoyDX5Y5jzhDJwzFH6lSwL+p/xjQtDi+yY7+gBvLPukZI5cci+PC0skAtzIJn1W3pxxGcE+k7OlcfL62OOdb4+6lDf1clziO4Jj3DQScrDS4cxR9d24tkyGpf01fY6jqpef23Kj6oGKTcExoQAJcDk6qZkdBnEKPi179uA5k1HJlETLcOqJniTK8WfF8bRdgUP1BrIxLP6yjAzkSpDMNjapmgbgcFbPJP+QhgLNfBUXUbdBdhXsCpo4Pc2strCaYXRxGZywtE2jJ/4iZ9okwZDuQwvE02FmrQYyiY08aymm0y0f5zCuNVnnNikLrMjUPf67HKZ39TqaNykXBoDGRiCcYCyaZxiCLnGsOqPkcZlRpBVfIpuecGkNy5TbstgqVYoz5ZCY4PvxmleBHGNMwwrY7VtZBbIKNMMNPnUmK+uDLYaTyiuFHB1ZBRRkIcFyrf2GIvUWfm+G6N87wfntcf4p3xKu3jGP/VjgDlPiVYv+Y7LmN5vR//7YBv715bSd8+AkQ8LBPrJThht531lODlngdGr7xlXPmXokB3bCWsR+Pvf/37TO1zX34wiz7D7Lk//1oF3jRFFb/EsmkWKuo/IChmRr7jO16IE5n6bO91r5I0MuRcsGtN11NN9Rr7pOOqm7IS5JTB8xJjbMpJbCCwKAgY2H5M0bxXl30RcE6vVJl403i8DpIGUUWDwMqCJawuNAezMM89sRhjXv4na5F+DY8Ew8BkkfQTxTOY14Ve85XCsNlOGTFzYW+0u9gZ/z1LU6p6VOyuBvF2UKcZt5VG89IP+lNZEJl5fkat4OYZACIyWgPHRdj8LMBZcKHwMHmOie9wYafHKPW4cdV9XEE9wzvX+OOBcfSq+ozFbeTxcxgleMvlKawsZI8zYI2/nB8duedg+yOCjXNfWR/GMM67Jq1/PKt8YRJlmbPG+ifOTP/mTTcmmpPeDa8YueamLMY/irAznLA667poxs8a4fh75PhoCDBeGNENG/5i/zO/mfX1HDvy2cFheWDX127OEdoG4H8QlL4wtaegUZLNvEDHQBPJiEZknd1goGa+4jvJiPJY8OirTPaIN8vTxu3SdYffDsPJybv0IxCBbP16JvcQJ2L993nnntecEDKAGzwoGJYMgo8BkbiuMCdJg67xB0UDluyOvl1ADmuNg6J+reINxlstvnkLbCj2j4aH9PnvfKU4mjzJgrWILk3EbPD/4e7lwTTtDYJwJGCfLIPJSH1u1jK28XoJ73meyQEkUeAas8PcVVR6uGof76a3+28XAmOLBUD5vhjHF2L2uMnm5eCEox7xc0vJc8fQziijUdkUw2ATlqYe6GsfKM2ZMqvmD8u63uNUmadUJC0dsjI08ZbZ3OmeeovQzLhlnyumPnf125/vCESBHZMGigqBvGToV/CZnjH+hrlmM0P9+iyMwxCxI+F2fduGNPxXPz6nulX6a+k5mGGSVbz+vipPjwhCYfJRbmPJTSgiMDQHGmLdX8YBx6xsQecFM2LaImPCtPHl2yWBrIu1P9jWJOrpWA+y6GigvQTorxUKtjLUfy+APYwxrxpitF9j5NwO8ZFgKxddv39eHr0mGokNxobBZbczEswwEK00cawLuZR4xBk09/2nbodfG2zZu4ev0009vxo5x0njL8KGclpdIA93TxmXKbS3YOE85Na47V/e77VtecMATwJihMDPMGFi2ZjHUjPeMGmOMMsVhZFGMBXVRD9snXbfd3Fjl2Rv5myuM5doiDcOpDCb1GBy7cOBlq39sLV0p1o4U5mqj7ZDqqdwPfOADzaMnP8aa3QWMUC9zqLq2CufPSAjo65rfJ6vAoCwM/q5068qn4s3kOJ95z6Q+yzVNDLLl2vNp91oEPD/ggVsTo9VLe6VtXTQxUw48y0A5MNma8DzPwCNmRdQ2ExOuSdhEahuJfHyvwdVvnzIq+oUzvpQnH1slKQf2k1faftyl+B17r/DFx4pzsfdMiZVgAXd9wJBivFFOxC1Gk7F13Yq0lWrprSpjS1nJJLQUpSltWkwEjIfuT8/V1LYtBohdCO59XiPjA4+UMaDGCAZS3fsMK8acc4yk/n1tDOZ1Y7yVgWPLnzGeAads+RhXbPlTrvFHmcZ0Ro/rxmR5U7DV86STTmp52HLmnIUk5YrLkLOopP7iGmssBtnSbhuafPpBGvFsu/aRn/pVO/xWf3U0x6iXrWTmn357LRyaS5TF65EQAiGwuAhs8PoQDdE2LANSQgiMmkAp3iYekzFjyMQ818Ge/zPOOKNN/LUyaiXSyuqP/diPtS0j/leWCVpQH6u0jDXbaxgPJnyKgwnRiqnr8mBkyd+bFk2YJl8KhKPJ9pZbbmnGoPSu887ZR26inusgT5O9uqjbkNt/rotcZ37YWAXHDVd1VDeKzGmnndZWfRlTzosjeFaPgmMVmjFHcbOth0KDa/2/OPFtR2KI6VcKlH/gTZnBfpRBWxmVlCdKlgWAat8o65WyFz8B8k2JJ+PuC4r8uMqWcV09h92Pxqcao+poHOjHdV4eg+f1YqXv5z/sXL/H63qld+znPVV5/XyqTnXO78qrzg0e1xWnrvfb08+j6q6+4xrqzX8M32rPuNY19VoeBNwvFnSMm6O8d2KQLQ95W7StXCiDzERGKXasyb6+q4PvFBpHQZxaEXXex7m67pqP3/VWLd9rImV8VTkmJXEq3/61dnIO/xhsxs0gq/YXH82t79gXd+cqrA/f6h9pMZ9PvlW/6RxjkE2HUuLMhMBiMshm0r6kWbwEYpAt3r5bqjUfF4MsWxaXqoSlXetFgKI+1TYP1ydbOSnjYFiB0jEqpgrynarsqdIuhWvraj8DarIwHb5T9c9k+eZ8CIRACIRACIRACCwUgYn+qnMV6tyw83U9xxBYKAJ9WRz8vlB1WErlFMP+cSm1bzG1pd8H/e+LqQ2p63gSKHlSu/rumBACoyZQclhyOer6pPwQKFms4yARC78LESaGFeTcsPMLUaGUEQJ9An1ZHPzej5fv0yPQZyhF7vPpcZuPWNUX1Qf1ez7KSp7Li0DJUsmW1ve/Ly8aae24ERgmn+NWx9Rn+RDoy+Mox8nxffJz+chCWhoCC06gBqAFLzgFDiUwyklgaIVycskQyL2+ZLpySTQkY92S6MY0Yh4IxCCbB6jJMgRCIARCIARCIARCIARCIASmQyAG2XQoJU4IhEAIhEAIhEAIhEAIhEAIzAOBGGTzADVZhkAIhEAIhEAIhEAIhEAIhMB0CMQgmw6lxAmBEAiBEAiBEAiBEAiBEAiBeSAQg2weoCbLEAiBEAiBEAiBEAiBEAiBEJgOgRhk06GUOCEQAiEQAiEQAiEQAiEQAiEwDwRikM0D1GQZAiEQAiEQAiEQAiEQAiEQAtMhMFH/NX06kRMnBEZJoP9f1CO3M+uJYtg/ziynpJotgX4fRJ5nSzPpBwmUTPXlbDBOfofAQhMYlMuFLj/lhcAggf4YWfLZj7NQ/ztvYlhBW2+9dbfZZpv165PvITASAitWrOg22mijjpxuuOGG7agiw+R2JBVcZIXi1mfX/77ImrLoq0u2S6Z932677bphk8Gib2gasOAENt544yZbCq57Pvf6gndDCpyEQGRyEjA5PRICfXkc5Ti5wetDNIAhp0YCKYWGAAJ1g5DLZ599tnv11VcDZhYEtthii+6ll14Kx1kwnIukExMT3eabb94xxoSMu3NBNXkUgRo3V61a1T3//PORrwKT40gJrFy5ss3pL7/8cmRypD2RwvsENt10026TTTZZo2/2ry3U96EG2UIVnnJCYH0JRGldX2Jvjk9RC8c3cxnFmVKaR1F2ylw+BHK/L5++TktDIARmRmDU83EMspn1W1KFQAiEQAiEQAiEQAiEQAiEwKwJ5C2Ls0aYDEIgBEIgBEIgBEIgBEIgBEJgZgRikM2MW1KFQAiEQAiEQAiEQAiEQAiEwKwJxCCbNcJkEAIhEAIhEAIhEAIhEAIhEAIzIxCDbGbckioEQiAEQiAEQiAEQiAEQiAEZk0gBtmsESaDEAiBEAiBEAiBEAiBEAiBEJgZgYm8Dndm4JIqBEIgBEIgBEIgBEIgBEJg6RJYqNfhTyxUQUu3q9KyEAiBEAiBEAiBEAiBEAiBEJgZgWxZnBm3pAqBEAiBEAiBEAiBEAiBEAiBWROIQTZrhMkgBEIgBEIgBEIgBEIgBEIgBGZGIAbZzLglVQiEQAiEQAiEQAiEQAiEQAjMmkAMslkjTAYhEAIhEAIhEAIhEAIhEAIhMDMCMchmxi2pQiAEQiAEQiAEQiAEQiAEQmDWBGKQzRphMgiBEAiBEAiBEAiBEAiBEAiBmRGIQTYzbkkVAiEQAiEQAiEQAiEQAiEQArMmEINs1giTQQiEQAiEQAiEQAiEQAiEQAjMjMDE66+/PrOUSRUCIRACIRACIRACIRACIRACS5TABhtssCAtm1ioghakNSkkBEIgBEIgBEIgBEIgBEIgBBYRgWxZXESdlaqGQAiEQAiEQAiEQAiEQAgsLQIxyOaoP1evXt3dfvvt3UMPPdS99tpr0871lVde6e66667uhRdemDSNvF999dVJr+dCCIRACCxmAi+++GJ34403dk8++WSXbfSLuSdT9xAIgRAIgZkQmJhJoqR5MwFG0xe/+MXukEMO6T70oQ91K1aseFMkxteqVau6zTbbrKutotLdcccd3Ve/+tXuZ37mZ1q6a6+9di2j7vnnn+/uv//+7sd//Me7XXfddU3aNxWQEyEQAiGwCAlYxLrqqqu62267rfvFX/zFbocddsg4twj7MVUOgRAIgRCYGYEYZD1uVmYZP7xcDKctttii23LLLbttttmmKQd1zWru5ptv3m299dbtw/hiYPntKJ9HHnmku/rqq9fyfD3wwAPdfffd1/3ar/3amrgrV67sjjrqqO70009vHrZDDz2022+//Vr+ZbTde++93WWXXdarab6GQAiEwOImcMstt6wZP42ZxxxzTDPKHn/88dawGkuNf/vvv/9aY+LibnlqHwIhEALrR8DuATrk2Wef3f3dv/t3u2233XZNBs8++2y7dtZZZ3Wf+MQnuh133DELWmvoLJ4vMch6fUXg/+RP/qR7+umnu4022qgZVQceeGD3y7/8y81A+8xnPtOMtYmJie6xxx7r9t133+7nf/7n2zYbSgQjjCHn+ymnnNK95z3vWeum4A2zEtz3kCmecffP/tk/67bbbrv2ffC6em2yySatTr3q5msIhEAILEoCxsnPfvaz3Y/8yI90G2+8cffcc891m266aff+97+/e/TRR9v4qmFPPPFE99//+3/v/s2/+TfdYYcdNnTnwaIEkEqHQAiEwHoQuOaaa7qvf/3r3YUXXth97GMfW8sgs7PgL/7iL7qvfOUr3WmnndYMsvXIOlHHhEAMsjc6grH0uc99rk34v/RLv9S8YldeeWVbjWBEffnLX24G1y/8wi+07TTXXXddd9FFF3W2IfJy8aI988wz3R577NEx4hhQG2649iN6PGm8awwsWw+tCivXUXoeOcHKcHnH+r/7596odg4hEAIhsKgIGO8oFg8++GBnR4BnaI2vP/uzP9sWuTxLZsX3He94R9tl8Cu/8ivd3nvv/abxdFE1OpUNgRAIgVkQOOKII5qOyPga1C0POOCA9siLXVkcBgmLk0B67o1+Y2B973vf6z796U93O++8cxP4E044oRlZthlSIH7913+923333ZvAH3300c0Ys7q7/fbbN0PLzcBrtttuu7UthvVyD3l7JmKnnXbqbNMRKB933nln28LIo3bppZd2v/M7v9O2SIrDoKsbS/kvvfTS4pSw1DoEQiAEegQsYu21117dv/yX/7KNh1/72te6H/3RH+3e/va3t8UtW7g9R/v7v//7bUfBr/7qr67Z4t3LJl9DIARCYNkQsGBPh+QAGFyct7uAjuk4eG3ZAFoCDY1B9kYnMoIIu325tfrAIDr55JO7G264ob3lcJdddlmzZca14447rv12A3gxxz333NPddNNN7dxP//RPt5tD9t/+9rc7Kxjve9/7Wn7OMbjcWJ4XU7b0ti7ayvPNb36zedkoLery8ssvt209udGWwB2XJoTAMidgEevggw9uW2+eeuqp7ud+7ufaQpbxUDC2Ms4++clPtpcd3XrrrW2Ra9iLkpY5yjQ/BEJgmRCg/02mA9a1ya4vE0SLvpkTto8kdG07IkVBwIR3y7MMDCRba5xjHPV5lYIg7jnnnNOdeuqpzUiz1dH2xS996UvtGQmvrGdUMbp40Erx8KyY/CggVjYcBfWwpfGggw5qxh2jjbvatsaqX/uSPyEQAiGwCAk8/PDDbbcBz//NN9/c3q7oOTK/PUtr3PXWxRNPPLG99MjY2B97F2GTU+UQCIEQmBWBGgMd63tlWOfqWOdznD2BhTJ0JxaqoNkjmd8cvE3R/wKrlQZvVPz85z/fvFUMIgqCUNf7teEZ8xIQr7yXj+fMrPx6xoxCIY3rXl3vf5V56LKMr8qvjow+H8aeOHXkURMnIQRCIAQWO4E999yzLXrZlWBhyjj3rW99q42PH/3oR9tugY985CNtcco4mLFvsfd46h8CITBbAjUOlr7Yz6/O9Y/96/k+/gTWfuvE+Nd33mrI6PJMF8+WFQbbBw8//PDmJaMYMMh4uSqIYwWX4XX33Xc3zxijy83gGTSvqffGMA+jO0epYLB94xvfaFt16vmyfn4Mwuuvv74pKnW+jvKwddJLQBJCIARCYDETYIDV87cMsnouwrhqHPXbGFxj6mJua+oeAiEQAiEQAusiEIPsDULe9nXkkUe2VzF7fb3AU8UA8pC5/5HjlaJewOGcF3X4nxAMK0aXNyt6Fb5rXsJB4fjgBz/YlA55MaisBnvuzFZGD7b3g/999oUvfKF52MQdDAxCBtmgITcYL79DIARCYLEQGDbWLZa6p54hEAIhsJAE7NyiC1q8H1yct93bx9bvwWsLWceUNXMCMcjeYGeV1uvu/d+bf/fv/l17o6KXcXgRx1ZbbdX+35hXMf/bf/tvu9/8zd9sb2T00g3PddWbF123wuuZCP9fx9sX+wqH7/4/GUOttiwqXpm8bZ4b8w/93FTy6gcG27nnnts8dspICIEQCIGlTsBYaIErC1FLvafTvhAIgakIeNnb7/3e73XeUfDbv/3b3RlnnNEx0ARv6f7d3/3dds3buv/sz/6s/Xul6IpTER2/axu8nh5b0ysmfcaRbYtexMFI87INhhVMvGP+abTVB29j9CnDSnw3wrHHHtu9613vag+m+38Rbgz/WZ2RV/8o2gqHZ8IqeLaM981/X1eeG+2rX/3qWkqI7ZK8an/8x3/cve1tb1vL0Kt8cgyBEAiBcSdg/LOlu3YbVH3tAGB8vfe9713z4iNvoLUTwWLZPvvs03YeVPwcQyAEQmC5ELADy5hp/KR30ku9AMl3j87Y2UVP9Hvrrbdui/u2fCcsHgIxyAb6iuHVt1F5tcrL1b/WPy8LxhwPFqXBP4e23dE5z5dRKo4//vj2T/0qr36xDDw3WT1H4bsbq1+Piu+5CtshE0IgBEJgsRKgQFiUMk5WMF4aCykUNU7WOXEz7hWpHEMgBJYbgb7+qe19HXSqa8uN02JubwyyOew9HixKQ1/JoGBQKvpKxhwWmaxCIARCYNERoECU0bXoKp8Kh0AIhEAIhMAcE4hBNsdAk10IhEAIhEAIhEAIhEAIhEAITJfAX+8XmW6KxAuBEAiBEAiBEAiBEAiBEAiBEJgTAhPDnlOak5yTSQiEQAiEQAiEQAiEQAiEQAgsUgILtb1+YqEKWqT9kGqHQAiEQAiEQAiEQAiEQAiEwLwRyJbFeUObjEMgBEIgBEIgBEIgBEIgBEJgagIxyKbmk6shEAIhEAIhEAIhEAIhEAIhMG8EYpDNG9pkHAIhEAIhEAIhEAIhEAIhEAJTE4hBNjWfXA2BEAiBEAiBEAiBEAiBEAiBeSMQg2ze0CbjEAiBEAiBEAiBEAiBEAiBEJiaQAyyqfnkagiEQAiEQAiEQAiEQAiEQAjMG4EYZPOGNhmHQAiEQAiEQAiEQAiEQAiEwNQEYpBNzSdXQyAEQiAEQiAEQiAEQiAEQmDeCEy8/vrr85Z5Mg6BEAiBEAiBEAiBEAiBEAiBxUhggw02WJBqTyxUQQvSmhQSAiEQAiEQAiEQAiEQAiEQAouIQLYsLqLOSlVDIARCIARCIARCIARCIASWFoEYZEurP9OaEAiBEAiBEAiBEAiBEAiBRUQgBtki6qxUNQRCIARCIARCIARCIARCYGkRmBjWnFdffbXzso+88GMYnZwbBYGJiYlu9erVkctRwE+ZIRACIRACITAHBDbc8K/8ANEx5wBmspgzAitWrOh8RhmGGmSvvPJK99prr42yXik7BNYiYBBftWpVM8rWupAfIRACIRACIRACi4LARhtt1OpJz0wIgXEhsPHGG3f0zFG+6HCoQZaVi3ERkdSjTyBy2aeR7yEQAiEQAiGwuAiYx0vp9T0hBELgrwjkGbJIQgiEQAiEQAiEQAiEQAiEQAiMiEAMshGBT7EhEAIhEAIhEAIhEAIhEAIhMDGZy3iy80EWAqMgUPJYx1HUIWWGQAiEQAiEQAjMnEDN4Y71fea5JWUIzA2BqeSxttjOTUmT5zIxWUGTnZ88q1wJgfkjUPJYx/krKTmHQAiEQAiEQAjMBwFzeH3mI//kGQIzIVAyOUodM1sWZ9JzSRMCIRACIRACIRACIRACIRACc0AgBtkcQEwWIRACIRACIRACIRACIRACITATAjHIZkItaUIgBEIgBEIgBEIgBEIgBEJgDgjEIJsDiMkiwFWTZwAAIABJREFUBEIgBEIgBEIgBEIgBEIgBGZCIAbZTKglTQiEQAiEQAiEQAiEQAiEQAjMAYEYZHMAMVmEQAiEQAiEQAiEQAiEQAiEwEwIxCCbCbWkCYEQCIEQCIEQCIEQCIEQCIE5IBCDbA4gJosQCIEQCIEQCIEQCIEQCIEQmAmBicn+U/pk52dSSNKEwGwJlDzWcbb5JX0IhEAIhEAIhMDCEqg53LG+L2wNUloIvJnAVPK4UP8semKygiY7/+Zm5EwIzD+Bksc6zn+JKSEEQiAEQiAEQmAuCZjD6zOX+SavEJgNgZLJUeqY2bI4mx5M2hAIgRAIgRAIgRAIgRAIgRCYBYGJWaRN0hAIgREQeOqpp9pWj6222qp77bXXuueff77bcsstu4mJ6d/OTz75ZLd69epuu+22a6uV69sMaV988cXumWee6V5++eVu11137TbeeOM3ZfPYY491q1atGlrGSy+91O24447d5ptvPvT6fffd1+2www7dypUr33Td9gJ1WLFixVplqpP6YLPhhn+93qSsRx99tJU3LL+1MlnkP7T1hRde6Lbeeus1fDB59tlnu2233XbNucFmPvfcc52022yzTZMvv7fYYotuo402Goy61m+ypD+k6zN/9dVXO9fUY5hsrJXJev7QHnkrU38K7ot13QfqqV0Cuav6uoec33777dfrPmoZjeDPgw8+2GR8s802e9O9oTrGhcF7o6rpvnn44YdbW7UfRwyxm8nqsL54+umnm3zttttub7pfSw7ck+RAGcYE5ZLHqWRDPGOMfq7xbdi5att8HrXRfUVGpqrzfNYheYdACCxdAis+9alPfWqwea+88kr29g5Cye+REqAUUjIoVMs9nH322d3VV1/d7b///s3I+MIXvtDtvvvuaxSq+++/vxklkylr+H3xi1/sHn/88W7vvfeeVHErzhQnxtHdd9/dlKhrr722u/zyy9vvG2+8sR2VP6y8008/vXvooYdaVhReRkF9/uIv/qLbaaed2qcU4yqT8fRHf/RH3QEHHNAU5VtvvbXVQdt8brvttk49KICl5El76aWXdmeddVZ3yCGHNMXwrrvu6jbZZJOmMP6H//AfukMPPbTlQ8ljbEymtFY9FuMRl69//evdO97xjjXGCn6f+cxnuoMPPri1e5jirU+/+c1vdgceeGBj/ud//uetbxhU+kc/6sPBftbHV155Zff2t799LePtkUce6f7v//2/3b777jtpmevie/vtt7f+o4z363zLLbd0n//855v8qp9rf/mXf9kMSkb+VP163nnndffee2+THeOKMeXcc8/trrrqqm6fffZZk3ZQJtdV14W8/rnPfa7bdNNNW/8wUPTdPffc0zHUHC+66KLWPrLf56aODzzwQPcnf/In7d7SduOHe+gtb3nLmrZP1hbGl3sTP/f+FVdc0f3gBz9o49H3v//97q1vfWtb5OmzIzfkYJdddlljtJMj97+6Oz9Zf11zzTXdN77xjSZDJXc333xzp/177bVXM0oH2zdZ3fvnjWnawEjsl22OYbBW/dXzpptu6i644ILuS1/6UmvrYBsZaeS0vwDSLyvf1yaAtz7DOSEExoWAOaZkc1R1mv6S+qhqmHJDIATWImA1/4knnmiTGo8GBatWjSlIjK1TTz21++AHP9iUNokZICZBgw6DiCdpv/326yy+UEIqWAW2al1eB9cFypC0PhQkiuwpp5yy5jzlxgRLGS5lRjr1pMQpu3/eNWmGBfmUYWA1WhuF7373u93HPvaxptxrI2WqP6mr6/XXX98MU4qUNlIe/9//+3/dj//4j3e8depBccfHdyzVj3egPEH4OEfBqnPD6jmdc/JR/4Uy/ijY2szziXctYFBi1aPag9tgf+BFecYFS/1T9cf1f//v/90dffTR3cc//vE1BhZ+FgcYumSM0f62t72tyQ+Z1P/DjIJ1sVP++eef34xvfa5OFbRJe+RLTks+MCY3DAtyo/6UZ54wMi5PackBOSbr2ssguPjii1ubvvWtb3WMvY985CPNeNV+Hp5S3HHTZufW5Y2r+s7HUZvVRXu0jeGirQxK7WMguz/73NRDfMaa+xQvCy0WZsiL/tIucsBgkV+NA/JksFJYtFs/M2Lf//73N5mQl7Jw78uV8tSNp9u4In/lyAdT5TPk3XP6RN85VjC28b7r6wrqId+qGw7K9tE3+lIZ4pTM9/OUz2WXXdbK/Ef/6B91e+6555o6M6wYt+pBPrA19qn/T/zETzRmFoHUv4J7isxccskl3Yc//OEWt8+g4uUYAiEQAlMR+OuRb6pYuRYCITByApRHigslhYLEE2QrD6WRJ4hiTOn8tV/7taaM+F7KsNXrH/7wh90xxxzTtt1Qhiis8uqHP/uzP+v+wT/4B91RRx3VFCOeFeVSbnwoPVbgKbmUMivrlBZKEqX85JNPXqPcyJfisvPOO7fV7EGlaLIVZfWypeqTn/xkW/Gn1FP4KIKlKGn/T//0T7dz6iRYqeY9o5Sec845TWE99thjm+JGwaQMuv6hD32oeYEoUl/72teaofE7v/M73eGHH97qi586/OEf/mHzQs5GuWIg6yeKH8W/6qq+2oBj9VFrxCz+aD/FkGeKwk0R5kXZY489uuuuu64ZGPqSwSYeWeChxLc8Bo7f/va3m4JOfnC4884723bAf/pP/2mTgX4V8SyDiAHFUPr5n//51lbyov8H+72ffrLvPBKMwB/7sR9bs6jQj8sLqG8dy8ikZDMu3AeYYs+APOGEE1qbeXTw511VJ+3DzMIEb7MFDAYC2WM8uM7w523kXSVXPFC//du/3dr1G7/xG2sp8/361Xf3BsVeP/c9uXV9fY/6ztZMR6wZILzI6qrf8VYeWSuDpV+GvubR+sVf/MVmaLhP3BcWWQ466KDGpWSBAUJ2yD+D7T3veU/rf/c9hieddFJj675UFzJXXqwqk4FDfiyISGO8EYdsYMnQYQDdcccdrR8/+tGPtjFNG8Qlp/pQ3zIQGUPGsve+971NbsXRX+9617taHfX7EUcc0cqwQGARQb15i/tyWG1Rl/79LQ155mE3RgpkRhzH/vdqI/ljmFr4OeOMM9qiEfkRNyEEQiAEpksgBtl0SSVeCIyYAOWR8UWZESjbFAW/KRuUDIYLxY8y6nutXFMIxaeEU1qk6Ssi1bTvfOc7zTNUyoTVY4po/RaPcs8QpOhSRiiDxx9/fKtDKceVHwVReZRD3/uBJ0W9KIAUI/WT1w033NDyds62NMrNYYcd1upLwaWsv/vd727GWN/Twyi13Y73S1llKMqTYsgAYmBSZrGkxDE8bc1zndLmPIXVSjeldhijfhvW9d3qP6/BsGf1KJaMWEpvn++68pzsOmWbYk0OGLs4Cfqax9DWQXLCaLHlCysGGT68IhW3r6SKj7389CE2lGj9ps6YkynGDMWeouz6YHvIrXKxGGYotMLf+MPIw4YnjhI+KDcUfN4I8qfPKM7aaEsZuTjxxBObLB133HFNPskk/tpC4S7vicUNW3Yp/e4ZSj8jVnyGyt/8m3+zlfGVr3ylyYd7gdFD/hk0FgfWJR+4Wwhh7A/j0m/3dL4zFsozpmxtwtMig/unDEkGjX4cDIxVTPU7jriol0WWI488cs09pQz5Vvsc9am2W3whY7UtmEeK0croMi5UfzG4LrzwwmbwMpxsbVVP8qQ824sZMgxifSkos+QKN2Vo05e//OWWTp6411ZrBrQxi1GqLcouY8j9oI9xkS9WJevGxWpbnxE5EshA1aV/3Xf5iqecygPrH/mRH+n+z//5P02O8DHuJYRACITAdAnEIJsuqcQLgREToLhTBCiNFA8rx1bLKQ4UNQov44bSQYlkbPzoj/5oUzYpJdL4UGoooKVMMFDkTbGliFBcSqGmaMjXVjDflWU1nEJO+WL0UJx4syhFgjrZFiUPBo76UGIqz8Lomud5KFW8aPLgFeFR4v1gmAm8btpFmabYieP5kX/9r/91M74oPxRIyp8ybElkfDGoKMTKp6hroxX2//bf/ltrp7y1R16UU21RphV/ChsW8tUeRoIgT0aFcnDUH75jiAmlHT/GCSMPO4ECWYGyTDH2XA0vhLSM0zLaGAzaqVx1Uab+qz52nVLquvyrTuqiXEqs+usnbVfWT/3UT7X+0SaKor6v7WWUc0p5eYZ4GJQhbm1fo9jK3zY1jHgntZthRA6++tWvtn70jJp05Eu7eD543PSDevC+8kaRw2EBb9sGLQLoLyz7gWHHE8F4wKS8rGRGO6Rznmzx7pFJ9fRhPOLMMNVXvEtkioGineL6jimZVhd5kRneHUYDWVUH58k0A1+eeGuvj+cpXSczDDv3grzImQ/+6qN8hok+4l3Sp86TXf2v7c7xamKKh74WR3wypZ8YOspzL/3qr/5qGx/0r7qql77XXvXVf7Yz8jziwYA2ngjVb9rnvuj3kfrrRx5DPNRPu5TBs/Yrv/IrrU76vYJ2MGDVgfHFUDYmycs9/Df+xt9o7cG6vOg1JrkXfWe8MXzk4YO39rjP1M+95HoxVTY+AhnQRosIZEF++tFYQg6LZdW3jjyAjDzjXfWTcjDHSH7Gyr/9t//2mj6TVj0sTHz6059uCwXaVHWpvHMMgRAIgckIrD3bTRYr50MgBEZOoK+cUuQo3BRQ3inGAaWXAkBxp9xTFPtKlQZQ/nhRXKfQUVL+63/9r90v/dIvNWVpsJHyk4ZySWGliFB+KIC+U95c97uUD4oTg4oSSPnjxVAehZCyw2tEcaPMU3p++Zd/uaWnBGoPzwRDxBY43i6Kk/ZSHD1P9I//8T9uxoGH7eWrjZRWCjOjAou/83f+TiufYUppVSfbE22n0+Z+fSmUVvkZM7ZPURopXgKFzuo/phRJn5/92Z9tSimDiiGnfRR6yqK2yE+Z2q7OynrnO9+5Jk8Kv3Ioq47qi1V5F7y0RVo8GAzyx0Ef6DveT8osJfF73/te2zr2t/7W31rTdeTEBxeKc3kyGFTO+WDgKNQ5RxwZXPqIIaxu+lh8R1zIgfzF4/FgrFHM9QvO6kw2KMGYUPq1T99hUeWuqXDvC862Fv7kT/5kk5HepfaVkcujoh/kQ+aco2jLn4ypD8NDPraKlpFAyfe95Jfckjfn9DMZw5ZB2lfw8VOG+4vBVYYiNra62sLIA8bT9r/+1//q/v7f//vN8+n+ZJCqG/lSN0q9vDFi3OhDbBkP+lR9cPuDP/iDJmOf+MQn2gs41Ml2Pka0duDEqFF39dAnZVCpBxnUPv1U96X6MGAZedpifGDE4qhdZM79yODQ/zyf+ktQRx5lhpAybRVVZ32LB9lUjntVXEEdXCPPDHWLImTIb+WSR4YazyRGP/dzP9fiyF+QX8mx7+4b7ZSH3+pdH78Hg/uLgc1IUp44eGuj8WVYGvetuIxH96M4uJClD3zgA+2aBSDn+2NI1ddig2v6RF+rf0IIhEAITIfAhEFxWJjs/LC4ORcC802g5LGO813eOOZPiaIYUGh4NChvlDAr7aVAUgbEY1x4GN5vzOpDWaLoUxYo+hQGSgglqOL0jzj47TrlxqovpZDCbbWfYkjZphhVXN+tFiub8kSJE5dSS0G1VY5CRAl2pMSXASRfihwvF0NTWuWXJ6iMAAohxcp1bVInChSDTNu1qQyoqhdjUJr6Xe3E0eo/44HChps81Z1nkIJma5V2qRdvTHkEKb+2xmnff/7P/7kZyTww+sMWLm0Rv8pSNiXV6rq0PGS2LaqXMvHhVfl7f+/vNd4YeQuevlIvhornVCjQDCZKs7TVf9qvLcq3vQwf+ZMZsmMrprooq+qknfqGweqcNPqUYUNWxNWXFHAfHiDneEpcp1BjLg4DUD2d16fiqZv6VFDGZIERQaakF/pxXZMf4wQn1/SXba0l7/rYdkdyjTEDpPLRTsaGtGRFYCiotzLVE8tSoqtsfauvMGd4ug/Igr4ld+RMXMaC+8N3bfeMFUbS8Sjq9+LAQGOUMaTVUf94aQ12DMB/+A//YZM99zJDgBGgzuVBtpghjvtHnowr7WBQqx+jVd30o/aoA34WGxieZNp119RXPHV3L1rYcP/WteInnntEGe5h/aBO4uHizY0WDhhA6uQedP9IR2Zwdx/zZDNmsCevDEQLK67pR+yk6XuqlMsrio1FFsaW+068kk/f+0Gd5I1vyROZVrY0g/Glxdt4iiUjUx/xqJEP58hI5VVc+mXK1ximHIZzjYv9OMv9e3F3rO/LnUnaP3oCU8mje38hwsRkBU12fiEqlTJCYJBAyWMdB68vh9+ekaGkUBApYpQmCgNF2/M2FEIKgWc8KPWl5GODW7GjmFGq5EVhoGyUUlPx6lhpKReUFYpGKa9+++5a5T145DliPJUySynjFVI33yli/bK0RzspZpR/BhhlkXJFKbWiTpGj6Fmdx0F69cKBwkpZc52i6LxAydJGChUFmrfCACwtpRI7zCiz2kV5V3cGhpV9yitW73vf+7p//+//fVPS1N2HIksJUxds5aksil/1Qb+N6uUaxdOxlGb15FGjuDOKKMcUUEcKKaWbYqssHrcyDKSr/mNo4yKNNivDdwo6g4sRpy7yVw/fbQHEVd7YUWKdZzQwavDWdn0hz1JocSJrzuPEqGDY8erIq9pcx9YR6/iDl8UGfV/9U0m0RTvkpz5khfHle/FyTb/x3OkPXARxaosvDgxhBgVeFG5GinYrX9x+nckHhtrKwNJu+apPMRTfbx/f63r1s3yLG9mSlzZiLA2PCtlVF/3KKOIB5p3l1VUH9ZKPhQptVCesfFzj8fbyEQsB6qBuDB7licvDJU91K4MZG3HVTfvJlvzIcXEQx33k+ShGPtlTX9v6lOGesKjhrY7uO/ep/MiSdioLZ15ERqx+8PIgLMm+6/XyHYac+gg4yItBRcbUTXx52NZKLgV5u6+lq7TGD95r9TDOlSFMPj3rVf3WMnjjj3FB37rXpXMk1xY43Jde029xg/eQQVuy1c8Da31oXOjz68dZ7t+rn6qvljuPtH88CIyDXMaf3pMFk0wpF569MREMDhqUS5N3DfCVnPJg0qI0GbAN+P1gJddKcq0qDuZLqTUhmJz7wfYVk0Qp23XNZGdbjknQZD2YX8XLcekQ0NfkyjY1BkUpBBRTW60YPc5R3h0HZRAJcubZDopdGVJkd6ogL/fCoGz2FWbK5bAgjpVyH0qeMn1XN98HAwNP/Sl9lCzKlrpSQBmi6v6f/tN/amkpR1UnChCFU57uT0qpdFbT8bHaTeHUFvdZKfzKd++4vyhclF91UEfxHEuxEk95lK5iJz+fuQrK7udZZStTcA0XCrZrg2X7TcH1wVidfRgs9cZCLOqaPCnDxiUGreeQ5KHt+otCTcF0joKrHlWm7Wn6BxP1YQT5bmysOOvLRXr96nkzzw/5XUE7tJlMqRtlWRznjZGOfts2yCilwFfAjCL/p3/6p82r6Pk7CwPlwWJUy6+2lpasSE85lxfD9Rd+4RfaQkLlO5Nj1V9a7RAYQbyf5VnWbgYBA8J9zeDRdv3I2OXpI5vkhZFi7vHiC7JubJCvNpeBU8fJ+sXcV54r/czw5r0rw8O9ZCuxedHWR542dWXwGRsYT+5P8x9ZEHj7/sk/+SftPpRem/SR+qqnect9qE74Vh2lrb7WBrJc94Hz7lVHaYwLxbAV2vujfB9pybOAV9WjF7V9Fcc8rc3iuEfKOLaApd62maqTrarGnMFgjldeLeAMXs/vEAiBEJiMwNpWw2Sxltj5ekifYmKiYISZ+EwyBnlbjigeBm+TcT+YCE04Vmr7k5tJ1qqdQbxW7vrprH7Wqp5VRluRGFtWw+XD0DPx2EevDhWkMSF7xseEQEEyAUpjtdNKqpVKk4iVfJNFwtIkQDmgiJCxfiA3FgHKaKdMUAyGBWkZdhRRSqf8fvd3f7cpehSJYYHskklySNlzpEh57oMcytNLHTw/1ZddSqL7hJentkBReimX7qEyauQlnbpQZP75P//n7d6jHDHOytPDA+A+Y2QxuMo7ps7kXrtL2aJgiuv+pex6cYD7khJLafSp9lpNd82RgaF96kZBpNBpp7JxLg8dZcz9OxikU24F30sZrHOO6oWJcUadGCA4MUY++9nPtjroI7wYG55NqX6XZ336eQ5+V26VjSsFWB6UYW2tQA4EY+BgYMRgg5XxhxFTAQ8fzJVDkZc3A6/YVtz1OTKmbH+z4OS7cslGP2iHPsTF4hRGxmtc9Le3SP7Mz/xM816SUfXj5SgPozzlYey39Q1rW0P1ie9kVP/LTzy/eePIs62F1c/Gb/Lrt3vD3IJBcSeXZMVvfcl4cB+7V8mP9ukb2/Xko0x9Y54xDzFyGILKZwDjWmyl0zfuD2/UZIwK6kz+eaT0ed/Q6TPsf8dMfPcUo1R9scBOwEBevMjGA/XR785Ly6tNpqvv1QETdTUOkHH1xMOHgcMIZtBVYBDynqnvsICdfNXLXK1sBpm+d74fXPNMoWPxcl08/VHt6qchP/rONmBtE8RTX3OucZN3zZbhfp7i4cVQ5X31P+z0zaDM9svK9xCYCQFyZqwgw30ZdN685eM+NaaXDM+knKQZDYG1NbvR1GFBSzV5mwhNepRCg6YJg5BTxigYznl43nWDa98oM7FYMe57KDTADWFicJMMDsQmEi8o8PwGxZMRSCEwsVMapDHZmxD7k5EJmqFm7zyjS91MyhQ2W27US10oriZCk0/C0iUwTInQWvJlWw65E4eHiDz2A7mljBikyZN4lR+lkmFADilNg8oN7wnZq/gUd4O+56qcp6hIQw7dMxWPUshQVBdySlmVv+/qQ34pqe5HCqq6Ueq9Nc53xoCJxXZF9458GESUWIsRvDm2NJXCrv0UNIqd9J7hsUXPAog86rktdaYs+ljg4HH0jA8Pm3vTvaiOPErysA2LUeb+MlZ4y5v6U8wo+Xg4715VB897MRYo0vL3UR/P12gTzn4zvjxfJh3DAkNHCrHtYdpFSfS8DiWeku4FAxZzGBzueV4p7amgD5SHLWODYoib8U7dfPRDjX3SVX9VHv0jWVJXccgYORkMytQv+Ni+Jv5sAoXb+MbIx9X3/rgob+2gKNeYRxExnpI3zzD9x//4H7vPfOYz7QUs2Bn3McCM8SI/W/8wx8r4TAb1DUMQH/JgS6FFAQYAeTdP6HPyQXF3L6kng1o+5gUGi5dC6BcGjvNeAMO4Uj6W5FY6z7+ROfOCawLjxvZPr9ZnCOjPP/qjP2ptIQvqKDiSd/LLKLIgx1OuXmTFIgRZdN59NFU/6zN19amAcQXtxVc8b1S0AOjeFYwFZJtMKtfCDIPN/V/bk8U3v2oPmSf7lEplGL8E95H7o+RZn+KqL9y/jDj3rHbUkSzjRw769ZWf+2cwkCdyo9/lRw6wl6f7kJFoPCy5qvTyFlc7LI7q035wrzHozeGMSmUkhMBcErCDwT1tsfW3fuu3mixW/uYnHnJybIw27xmzBuW04uc4ngSWnQZvoDTpGMQrmMycMxDXQOq6AXhwYJbG5GSy6U9wBngGlHO+mzBMmJQhE7i8KbYexq4XAZiclEHBMnkYyKs8eVBUKWjO+y1vk1Nt01GGSYtioQ2DE1K1L8elQYBS4lXTXizBQ1TyR4YoO5QJ5yiNVmspa66RCwppyUfJWFExgBvkKYGe66IQiWv1mpLieqWVhmJO7iiulZcyKa9eRsHTwwjige6no6wyMNRFvci0svzzVp5eRpf6uy+sRLsH3TsmFnWgyFEw3ROUXl4U95K32rkvBPcBRZrCK2+81JdSTyHGCRfKuhV0eSnPNd5p321bpCTKy31LcXS/awvFlgfFdW+9o4hKa9xQD/dkrU5Sni2gUOQpssru8zBpSqvNjsXdtjBjAuXRuMSgcFSu8Pu///utPMZWKeftwhtKKKURO22p8hiQ+gRDR3WvvjOe6UvPyvAA1bjlOgba4xzvAd7yGgwUae3U3pJLcfAohXswzWS/1Zl3yJY5Cj5Z0/Z+vuLUb2UwWhgiOKo345tRxtA67bTTmqyRHcq3tkivzzBmoDGgGcLkSF/9z//5P5syw3BgXNgqaNzVRzy44siLnLnvGHtYkWNKEPkW9BsDnvKvv3jolE8WbAEsI1efuabu6uE7r6y4/lG5+kqDhTa513jH9J2j+mmPe0zZFhPEc67GgOItz36QdzHxvR/cowwv96H6+Cjjf/yP/9HuLcavfuBJdv9gro7ikQV8MNUu/cTDZgzwohKcsPvjP/7j9qwchvi53wTscMGZ0acugrGAvBqzyLK3U+oXwXilvsoaDOSwFiwYf8ZR/WtR1DxNFow7g4YcJtpYx77uoAzpLCQZv/SF+g5yHKxLfofA+hIgo+4dC0T9MdV8ZsHHGGA+Mhaay40h5q8aJ9e3vMRfeAIbvF6jXK9shsWwAa0XZdF+1VyCTWGtickkYSC38mXioEhaaTXB+m0CoJxSRHiqTIzDtixapbC6Kw1PgFVSSrSVdEaTickzDJRWk5EHmz2TQMGysmzipDSYhNSxXtlt1c0kY6IyMVIOKZImc4qEyVl6HxPwUgx46QdclmtwT1KGKM4UIQoer6zVWfJQioDnrHg2yFIpKgZp6Sl75LMfMDXAW4323cIBOTIOUJJ87ysY7gO/5VPnpXOesmICKG9xP47yfSizlc79qGzn1LXyUSb5ZlSYcLSbUq6N8lSW+5Ty5H6sSUde6mw1kaLEmGFQuLekq/IoZOpKkRTqmnqpo3hVd3XyEZTj43rFK2XW74rTz6edfMOjUfV0rvLwvfKo81VmlSc/56oM8VyrMcxvyjkmZEHdLejgSumVHhsrrM4bK3CrfLHiCWTUmMTda7xx8qIMK4vRLS1D0/0orSCuemHcb5/68DYaBynXFb8lmsYf7dXP2tBvJ27GPMaXtjF2eEoYTiWrZMB5Y6Z6CVW+MVTfa4O18gSRAAAgAElEQVR05INcVVptMW6LL//qg8qj+qDqVL/FUzfp+hyqL52vNPKq/ncUv67JT5r67btQeaq/BQneW2OAvhZXOt5lRoV5SH8L1S7ftcvcZz4qLu4VY4aFjBovWsI3DGpGjPM+ylEf8yGjSD7uMee1Qz64llFTbTMeuOeU6T6ucUI/lVceH3OkvCza6BuyqP+lNR+TRfHIBYOTgqoO2us8mRuUw2qLuoivHeKSW+zkrz3qJH/l9wNmxlNjpzjS9oN81Uc6n8Hr/bj5/lf/7w4j8oldwvQIuFeMv//qX/2rpjPW3EV39aKp3/zN32xefrLqtwUSuiP5Tlg3AeMCVqO8f5edQVbd8i/+xb9o/6tIB5hYCDXjyCBh64VtF1ZpTYImDCvDgi0YVoprMqv8HE1GJgarZPK1sm/yZPBRck2EbiIr4LZceTnBb/zGb7SVRiuKVa6B3yRYW7dMtCYxE5K6Um6sxqmTbTa2SpiUlDE4mfTrt5i/xyD7q96ryb+ULL/JR18RKAWwf85gLlBAJguDcWqynMkAJe1M0vXrpl3uP3mVgtrP0zm/++cqfU32GAy7J+QtXSm5lW4xH/uctAMfod9GXJwv+an2SlvGTzGfjlxV+mFHeSpvPiY5+epXddUeZQ32s3PDZIOc1/lKV7+rHcPY1bVRH9Vf3+Da71v1YmQMO1911i5pjQPVZr+d75+r+I7DOIpffduvg7hC5V35OK/e4g72U8XpH+VffeO8Okrbz5e8Cn35GlbXfr6TfR+Wf8Udxqyu5bj+BKq/yE/Jy/rnsjxTWHCjM/7e7/3emsVEj9fQFb1oxgKSRYlPfepTbWHGwi3dKWHdBMbBIJtcO1t3/Rd1DF4mHi2Dg5VUQmwVzoRmoGdw1eBPoBlZrnlWwhZCW3RMEL/+67/ebgTx7eW3XcN1v+XNuLJya7WZIWX1kjIkntVARpytU9zQtngw2JRrRdG2Itsy1M/qpfw8N2NC4zWw+sxN7bxPwtInQDYMHBX8HjSyyKVPPwzG6V+r74NxSv7r+vocZ5O2yinFTV6D7RFn2LlKu677ofKu+EvhiFO/XcP4TMZF2pnI1VTc5Gmsm4/Qb8ewdipT+cPCoJwPizNZnsPiLvQ59Z+sDf0+HFYv7RpsG5npy81gumEc5TGsrGFx5ed8v88Gyxj8PayOg3GGydZk5Q+mHfw9VfuHMRtMn98hMCoC9FL3Qt0zxgb3pl0PFhMSFg+BZWuQGbht22FsWanx8QyEbVoMtf4AXZOPVTSGELcxg8t5xpLnPdwAjDxbGlyryUL+9pfbgiF/q4SMMWXwwNl6YnukbWe2Z9S2M/lIx0gU39sWlSG9YGXJBFfn1D8hBEIgBEIgBEIgBEJgeRCYzCvsfDyQi0sGJibrsMnOL67mTV5bBhlvE6PGg8GeV7Ed0B5zxlNtmRjMgRHG02Vrou9WI+w7Z4TxeBW3OjK8/st/+S/N8GPs8bR5/kx5th16yYetjJ7t+OQnP9nqIy1DTp7ytgJSbwCTn+vy4l3TDish9turszotxVA867gU25g2hUAIhEAIhMBSJlBzuGN9X8rtncu2FbM6ypveSR/kMHCeDksntH2RfhrG0+uBPtPBFDP1vA/ms67fE5MVNNn5dWU47tcJLU+WtyvVG7l4uJzjobJd0fNkth/aSkjY+yx4vhhsDDnGTz2szFPlpvBCDqHSMN7s42WIMa48G+YhYQ+bezjeVkl7f72amKestqIwyBhuXubB+6WubjLl+6iv/NRPXZxTZpU77v2wvvWrdtVxfdMnfgiEQAiEQAiEwGgJlJ6SuXz9+6HPrvjRExlhXubhPQNevuSalzbRJyve+pe2vFL02Y6q5UvTnbIOmoTXG6oYMv1O8N3boeoNZIPZMMR4rWwrFGrloSxr53m8bDOsvbsMNG+6sSXRGxoZYF704Rk0xhSDjWFXWw+rTHVxM7nGiGMgehOU/1Xj5R3eMubZNHUqg6+/zbLyyTEEQiAEQiAEQiAEQmBxE/C2YU4AR84FwQvfvB3XDi8v/fD2Ue8W8E6C6ISLq79XfMrrWAYCj0wZGwOXFvVP7WLcEFLGk+e0eKJ4rGz/88INBpJVBq/b5iljgDHSvGmRIec8T5rXDfNyuQk+/vGPt9UIL+Tg9eIpUw4Plut/+Id/2AwwxpSbST3cQF7k4WUfn/jEJ9rLO/xTTzeXMmrroVeRM+T8zyLbFp33Dzq9atg/5PUM25lnntnKk1Z9GXNLLTCeyyW/1NqW9oRACIRACITAciBA/6Kj1KL1cmjzXLTRmxQ/+9nPtoV5uqL3CXg7N53P4rx3G/hXSXRYL4Sjj8Ygmz55DpCSzemnmtuYy+q197b8MXBqW2ChtP3PikO9OdF5L+8Q1z+29I9uvWLe6+6FvsHjH5d6vX0ZUK57zovBxgvHMGPsWbFgPPnOcOLt8tyX/xXFtexm+vznP99+M7QYioJnzXjBGJBc0erpmjKdc1PaculGlM4/L12KN6E2e5Yug3gTi/wJgRAIgRAIgUVHoHYmLdWF//nqEA6B0oHooHZV1QI8B4rrmNJvne/rpPNVp6WUL54lm6Nq17IyyAgt79UgdEq+T99QE5exI67zhJ2ADwq5OINWtXPiea5LPj5uIN4x+bnuxuJ5IwTiKp+xVV67Mvqcd5MxJtW9PHv9NojD0HMTWh2ptKMSqvkoNwbZfFBNniEQAiEQAiGwcARKd4lBtnDMU9K6CcQgWzejOY9RxtGcZzyNDKtsR2HQcKrrw7JidFWawXTOT5bnsLwW47kYZIux11LnEAiBEAiBEPhrAjHI/ppFvo0PgXEwyJbd/yEbZswslEhU2XUcLHey8+INeubWJ+1g3PwOgRAIgRAIgRAIgRAIgRAYDwLL8i2L44E+tQiBEAiBEAiBEAiBEAiBEFjuBGKQLXcJSPtDIARCIARCIARCIARCIARGRmCinj0arMFk5wfj5XcILASBksc6LkSZKSMEQiAEQiAEQmDuCNQc7ljf5y735BQCMyMwlTxO9TjRzEobnmpisoImOz88m5wNgfklUPJYx/ktLbmHQAiEQAiEQAjMNQFzeH3mOu/kFwIzJVAyOUodM1sWZ9p7SRcCIRACIRACIRACIRACIRACsyQQg2yWAJM8BEIgBEIgBEIgBEIgBEIgBGZKIAbZTMklXQiEQAiEQAiEQAiEQAiEQAjMkkAMslkCTPIQCIEQCIEQCIEQCIEQCIEQmCmBGGQzJZd0IRACIRACIRACIRACIRACITBLAjHIZgkwyUMgBEIgBEIgBEIgBEIgBEJgpgRikM2UXNKFQAiEQAiEQAiEQAiEQAiEwCwJxCCbJcAkD4EQCIEQCIEQCIEQCIEQCIGZEpiY7D+lT3Z+pgUlXQjMhkDJYx1nk1fShkAIhEAIhEAILDyBmsMd6/vC1yIlhsDaBKaSx4X6Z9ETkxU02fm1m5BfIbAwBEoe67gwpaaUEAiBEAiBEAiBuSJgDq/PXOWZfEJgtgRKJkepY2bL4mx7MelDIARCIARCIARCIARCIARCYIYEsmVxhuCSbGEJ1NaGOi5s6SktBEIgBEIgBEJgtgRqDp9qi9hsy0j6EFhfAlPJ40J5zbJlcX17LfFHQqBuiDqOpBIpNARCIARCIARCYMYEzOH1mXEmSRgCc0ygZHKUOma2LM5xpya7EAiBEAiBEAiBEAiBEAiBEJgugRhk0yWVeCEQAiEQAiEQAiEQAiEQAiEwxwRikM0x0GQXAiEQAiEQAiEQAiEQAiEQAtMlEINsuqQSLwRCIARCIARCIARCIARCIATmmMDEsPxWrFjRbbhhbLVhbHJuNAQ8aDkxMZF/JDka/Ck1BEIgBEIgBGZNgG5Z8/msM0sGITBHBEb5Mo9qwgarV69+vX7UsV5LWr9zDIFRE3CzRC5H3QspPwRCIARCIARmTqAU38znM2eYlHNPoORyWM5TXRsWf6bnNng9d8VM2SVdCIRACIRACIRACIRACIRACMyKQPYlzgpfEodACIRACIRACIRACIRACITAzAlMxEE2c3hJGQIhEAIhEAIhEAIhEAIhsDQJLNSWxYmFKmhpdlNaFQIhEAIhEAIhEAIhEAIhEAIzJ5AtizNnl5QhEAIhEAIhEAIhEAIhEAIhMCsCMchmhS+JQyAEQiAEQiAEQiAEQiAEQmDmBGKQzZxdUoZACIRACIRACIRACIRACITArAgM/cfQs8oxiUMgBEJgGRF4+eWXu1deeaXbdNNNW6v9XrlyZbdixYppU5Bm1apV3WabbbbOdF7EJO5GG23U+SergvJfeumldaavtM8//3y31VZbtX+2PljJ1atXt3/c2n++WN6vvfZat8kmm6yp34svvtjq4B+2Tze88MILLW98qu7D0qqDMjfeeOM31fHJJ59s9VCXfh3lI50yXJusXhj4DJaPqX5wbTC8+uqrrS6bb775m8oU13Vp+3zwwohcTCYLVaZ+F7S5n8dgPer3sP5wbVg9Kk2OIRACIRAC40tgxac+9alPjW/1UrMQCIEQGG8Cl19+eXfGGWd0Bx54YPfcc891X/jCF7rtt9++22abbZry/thjj3UMIIr5oAFRLbvgggu6888/v9t///2b4j9ZPPEp+aeffnrLSzkMizvuuKP7yle+0u20007dfffd18pizFQ+jIUHHnigu/TSS7vzzjuvO/vss7vddtutu/POO7vHH3+8e/TRR7tHHnmke+ihh7qLL76422GHHZpxV+kvvPDC7oorruj22muvNfX70z/902YIMmCeeuqpVuZkRlC1E6ebb755TT51fvD49NNPd/JnnOy4447ds88+29rNkPuDP/iDVoett966u+WWW7otttiiGYbqis13vvOd7q677mos/Pb94Ycfbu3TRr+l08Y+Iyycx+nBBx9c6/P1r3+9u/3227uDDz64lTVY35tuuqnx33fffddwu/fee7vPfOYz3R577NGpa7Hsp73sssu6M888s9tvv/1a3cXffffdm7GMq37Rd9rdTy/ND37wg26fffZpjOqaOp511lmtTEZene+Xme8hEAIhEALjRyBbFsevT1KjEAiBRUSAscUgYhjxVN14443NgKBQ+/5bv/Vb3de+9rVmlFWzeE94R8obI97hhx/+JqONJ6TiVFpGxVVXXdW8IXVOPMYHD9E555zTffGLX2yeIteVxcAQhwGgrh/+8IebYfHpT3+61YNhQumXB4Ve3H5gaGobr1wp+Qw3hhOvzOc+97nu3HPPbXn10w1+591i9FUeg9frNwPsuuuua+U988wzrew///M/bwYTHurx/e9/v7vkkkvatUrH6GWkMFj/f3v3AWVZUa0P/CBjjhgxghhQwYyAiCgoSURQQEmKID5Qkg8wvL8u8K1nQJdP8QkqSJAoAoICEsWMCRUEAyoqoJjAHJH0X7967H5nLrdnemZ6eu7t/mqt2+f2ORW/2rVrf7WrzkVOYFzeLe3zgd9FF100X39I/5CHPKRbc801u3XWWed2H+R6QQTnmmuuaeSuT/D0KVKGpE7WXvjpG30EX8RXEF/7DzjggEb0BvsD9vL1QTalF2ClrxKCQBAIAkFgvBCY+l6T8WpXahsEgkAQWKoIMH59GPgIBCPZNkDGMc/GmWee2bxVu+6664Qxj0wwtr/zne90J598cvf0pz+9/Y/U8dAwzvvGuzw22WSTRqCQCeGSSy7pnvzkJzfP0Wc/+9lu7bXXbqSNJw5ReeELX9i8YDxfCAqi+LCHPazFWWGFFRop4YnjeVF3njJeKAHpQD5qax7CoG3aYysgAvTIRz6yeXEQn/ve976NyLz85S9vXrI+aZM/oqLe1abf//73jSRde+21rW7KRFp4hRCi2trH66gu3/ve97oTTzyx22KLLZrXB2FBOhFH+WorzCt/V/V67Wtf2+J7po71XHnaBOtBbx6sLr/88lbn6qcGSte1ejz/+c+/3TZHdfnxj3/c8ltttdXalcfuQQ96UCPGz3zmMxvO2qhMHjb10d+Fqyvvo/Zql37Tx4jrzjvv3Dx54vMW6ktEU36Pf/zju9NOO637/ve/3+2yyy4d75x6I4XiJQSBIBAEgsD4IBBCNj59lZoGgSAwQgjYpodY8PogKzwVDGqEjJH9tKc9rXve857XiMfFF1/cjPC+lwVZYLAz0Bn2RUb6TbSFDkEqAxvpsqUOEWGI2wKIBKmDujDkkRvlI322NCIevC0Iku16vC2nnnpqiyetNLWlDhlAMovA+F87lSnYDukZzxMyZ6seEuB/5fNGPelJT2rEEIk76qijGplEdgRkSJnSIhgCYors2G4JAxgiL695zWsaWXz2s5/d8OFxQhQRFeX6Dg/evnve854TdUbUVl111UbYCrdW0G1/lOFTbaxn/l9llVUa4Rwka1dffXVrEwy1QZ8gPtr+P//zP91zn/vclqethLDUr/KzLVLf6N///u//7t70pjd1a6yxRoeYwqBkB77kgOwgX7ylRYwRMP2ATAv6csMNN+xe9KIXNay0X9ySH+X66At9gBzWs2prrkEgCASBIDBaCMwzoSQEgSAQBILAoiHw4Ac/uHmWGOiM5I022qiRHVv3GOWIAQMeAUJ6kKuXvvSljYgw+JEUHi0EhMFcuhiZQtaQN3mI45lyPvjBD7bzRvLiPdtmm22aJ4hBz8PkvBJvGGOdUS6tgLAgPPJm2D/jGc9oeUvD48WgF5SLDFSZ8uJBswVSPMQJuUAQPEMgPNceRFA5SJD6Il6e8+TIV0BMkTfeJISqyoSldPLmFUMCeeO0/7LLLmvlnnvuuW0Ln/NWykHKrrzyypaHP85UITm8jEjlK17xihbPFr7+VkKER73U0Qeps5UTgakAO/2mDfqBp0+eiBnv3atf/eoJ7yZMn/WsZzXyiwTzNvKawcoWSG2ovLVZO+G+4oortvrydq2//voNQ+0S30fZCBvM1AVG6o2II7PIH5LK66ZPtQUeZAPe2glDJBDRHEZOq725BoEgEASCwHAEzAczEebNVEEz0ZiUEQSCQBCYKQSQlvrweCAItsvxjiAHjHJGMFLG48NAL88MvesZA5thjaTYcobY+H+ttdZq2/TE6394XBjmjPLNNttsglhJzwhHGhAE3irl857wkDDIlYXcqCPi4t6OO+7YjH2kRECIkALnzBj6iIy48kIIEYutt966vcAEOXEfeVK+NCuttFL3lKc8ZcIjo+7y8BHgpQyEo+5ps+/i8jQiHy972cu6Cy+8sOMdQ3Th6z5S6aUdMEBuEF/pBfgha7CHj7KkO+aYY9rLUpBOmKszslO48kwhqPqJ900b5O0lK86pIV88YDBC9rbaaqtGgJQLU/kgSNqkf/UBgoQcV9uV6yNNYVJ4qKM6wfslL3lJa7f04qsTwvac5zyn5S+eba762otg9txzz9ZfSD3iqC3qoL7i6Cv96V5CEAgCQSAIjC4C2bI4un2TmgWBIDDiCCA+XoLBIGYMIwjOEPEWMdAZ3wiLrYMM7iIP1Sz/IzmIFhImzfnnnz+RtuK5Mqxf+cpXNm8bsiE/njcEjPGOTCAI8pSP/GqLpHu2viEVDHovGdl4441bPXnqnH9Tb3nyeFXdlcv7x6BHdrwh0Tku5SOZyA8CKn8YlAeo6m2Lozc6qoeAEGpvtdE92yiL2CAwtjyK0ycuRSjcQ1DU0XftFnxHYgR1Vw919B0B5KXzhkj5+I40wVM69/QPwnn22Wc30ocQyhsBQwS176Mf/Wgjt9LLW1oBpkii/Hj3bEl0rk8byQfvWdWzJbjtj2fKQ0LJDuIsHk+k8gSyg+w5MwgbhNRzmGkX0oW01dZU7RVPGhhUHfvl5nsQCAJBIAiMHgIhZKPXJ6lREAgCY4CA18x7qQZjmKHMs8IAZpzbSvjEJz6xGfs8Z+IhPoMGsv8Z4QgCw54xzUAfjAcOW9JsUfNGwy233LLFR6IQBAQG8WGgIyzIw3777TdhlPNgee7sGcMfKbNtDklBLrwOX/0Y+z7uISq2vSEFtt5Jt/nmm7cteQgDEiUdIsST5IUYffIhD96yddddt9VDG+rNh95kWCSNNwvpQTDkiQBqA/IGG9sFebC0UUBA1dX/zu1JJ/Qxq+/aIA+4Iiv+1w7bCt2vID7sNthgg3amrc538XLBDdnibfQyFJ62yl96/yOlcLBlELnyHbE8/PDDGwbSI0jiaqO3QNqCqQ/UCcGElzdk2mopLYxhQS6kV1/bL5FgmMDNWUAk2UtV/OxCQhAIAkEgCIwnAnOWkNnuYTXY5NmfXBfWjSY/5zVM7oPBZGkCr61H/eeMCJOrsxMm18EyTdIMrloZrbRWaBlojKS+AeEMB2OIsTMsv0qfaxAIAksHAaQGGeIpYlwbu8gBT5FzPMYzYxsJsUWuP36rRu4by+LxcDHKkSBpB4O86S26o3QNfYPYeIZQOAtFR6233npNF5U+QRSQBMRMel4cacRVX8+9AEJetsUhXs44ITyIBI+f+js3VsRSHZGbY489tpEMbwRUn2on0rPDDjs075/2CTw3ypenjyCOumm7+tKRyC0PEqKz7bbbNow8Q8LgSW/DyXY/7RgWeI7oarq1H5SvPvLXxqqbeiPRdDU8kEKYItvw5iFUz2pf5alecEOOET/PfWwNtU3VXIHUKkf7i6hqJ/zp8eonut69qiM5Uv8qUz9YAICB82VIom2Oyq92VL1yDQJBIAgEgfFBYE4SMpP4kUce2R100EFtMmdYMFRqYve/FVJGQU2U1aUMIhNv/5yEZ9I6fM24MREPBpOsH4x9/etf3w6G23JiQjXBm3wZQSbqnXbaqRGsSm91lsG3zz77tHKROoaOidtv6djKYgsRUmaLEoMgIQgEgaWPAONYsGhiDPcDQ5/3if7g/UFsBuOIz9Dm/WH0W8hhVO++++7zkanKV15eCiI/REFaBAXxoDvUh/eMDnG+DGHhXZE3XcPLRZ+IX3oNubJd0gfJsfAjvvzVl+dO/egY5Sqz2oFMSuNFFvvvv3/z0GintssfEfG9yES1Q/rKwz2krv53VTYdrE2u8EWI6FXf1RkB8RyBcu0HadTbGyi96bLy7sdBcmwvRG48p7dhhdAWVnBCkpFX3tDzzjuvESDbUoe1Sf7yqsU17UCY1JdHq+YXcciG4BzeYHA+rmRHHyLsFeh37UXs1AHRs9USWeR9SwgCQWB2IkB/0IP0MJ1iQav0kGd0BbuQbmCjZoFm/ORgThEyk65VT+SIsWD11LYPExoBLzLjR1dtDXr729/eyE9/Qif0RaT6Am9AIHEMmn58IsFoYgh5VTECZrAwKN71rne1D+PFlp9BQmXgWT21SlxvHFNvb1rzuzzqzPCwiuqtamVkjZ8YpsZBYPwQ6I//wdoblwxpY7JehoEoVPCd4e45L7e8avwiGSbWmoArnTwtyCA9xr7JuLbf0WP0mi1wPDzS0GP0DdLhvm1x/TrTQUiOfJAMBj0CxeBHtgReHPWqid899VIHOsszaZRvAQuhcTat2tJPV20fvA7qS//DBlmBHSKJFO61117dpz71qfZTAnQ344S+LQJU+cDJ1j8eO4tX2oJc9YOzbepqYU173/3udzdCZksn3QqPesU//LzIw49o20bJM2prJuIkqAfspVEv5alT9a84iFNtO/R/vx9aJrf90YZhsjMsjv5lfNm+ml0SfYTyPQjMPgQsfNF/dKKFsBe/+MXt5z3oL7ryhBNOaDsGzA3sQYv19EPC+CAwpwgZIwWZcqbDajICViutti9acWDMmMw33XTTZqDUJN/vUkQJMetPqowUXrZhAbkzWTs3YRJlvDAwDCqDxyqsgHgVKfQ/g8AWISvnJnfGjS1BzjEoW92s6vrhWO2ZivEzrH65FwSCwKIjwMj+whe+0BZbjGXjjx4QEBITpXHqO73TJwUIF8ImvjE/qGdMvgiPD8LmuYUdnnVjHZHi1ULQnCmix5wjUofjjz++e+9739t0g7coyp/e6OsrdbfIU8TL+S86SjmeIRbOMvW9V4WQMtUD2fEWRPGdWXvLW97SdKZzWPTakgR1lf/qq6/edCUCyEPFe+cV8dqr7s7r0anbb79906fqDxf61QIXLxW9bvGrj7P+UG9kBp7Iqu/OYXnmbJbyLKLBVJzddtut+9jHPtbOyiFlFZQpjo/v+tlcYz7winwvTHHt63d9r9/8sDNvWL9uJTPkxndeQfq/H8gPIlwvZhG3gnIH49ezXINAEBg/BOgUW8NtkafnzznnnLZN3qKQBX4633W77bZresWLpjxjP9JLCeOBwP9p8fGo7xLVkpHgVc+2HfrhUJOkrT1WF02IJlGTMMG2AsqgEkz8JmkGkQlSWgOjL+gMKx8r0rbCWDU1aTMkGA3ImK2Sti06M6Eu8kLseLwYNlY5lGmlWl7eoGZAMUx43xgXPG1eL+058ui7SZ3h4LyCdiQEgSCw9BGgN4xrXnckwWqkidPKJS8X8kBHGLd0CsJTgdeFfqAHGPH9QAcgFNIgXkgJXSG981TGuDh0An2mLPeUT4f5QWW/heZ3yugs+Usv0F2Md3nxfiE2ntvap67yYcxLV9uppUPM6Bv6DOFBInjrxdeW173udc0QoFvVYbKgTO2SbkEBZgiQ8nil1JGXim6sOvu9NETJeapqnzzhqpzyGnltPT3bD/SnPOlWWNrmCT/5yN8ZOn2J8GgnbJDaPfbYo+Ej79L/u+66aytP+vqduepXHjgeL3l4Jm8B/mTHohsPIEwEpNB99ZK/+Nosv35A7uQtnz4ZszBAZpSXEASCwOxAwKKTRbJddtml7UQwPxx88MHtZy0s2Hj+5je/uT2j29iJ7iNlpadmBxKzuxVzipCZgBkx5fJFnAirCc0zBI23itHit4BMevbm84iZ9Bkq4lkdFs/3fuCtMnkiUfJE5MR1WN5gcuaL4eMNWs6MOVSuPiZfeb3//e9vho04jEibzeUAACAASURBVB/5qZ83tDFQDC4GiitDgafMlh0Dz0TcN0r69cr3IBAEph8B4w05sTWOAex/hjMPESO/JkKeDPHcK51h3CITwwxn6Xh1GNzImDjSyZ8eqIDwCeJXvv6nH7zowW9XMfT7BjtjX1CXIjb+L0LQHt72p5+nupjo1aHKq+fu0WEWhbxMZFhelS+yJH2/TvWsfxWHLpVXnbfqYyouUqetsC0d7j5i5FNBPojLsFBtQLAqKNsWT0SuSJpn2jmYj7jV3/Kik13dF9TfQpnfBSuS5r766kuLc9pReCCC/q/0PHe1jbRleNsffdfPr57ZNiqNPKpt9SzXIBAExhMBu6zoWDqfrqD3eMnZluxI+oCe8MxCGl3FLrSwRm8mjAcC8xa0mjkeTVi0WvKAITq2BBHyd77zne3gNYFGnrh8Tc5Wet/3vve1H960ndEqNILFa4VQmXhNmv/5n//ZvelNb2pGk1VpXrDnPe95E0YBQ8YkyZNlkCBSJnkDSeBJ89tCVtkNOCvRAo+cfcDqifxJZ5K1/UU+SKLtUgwH9w06fTnX+rOBlT9BYBkiQHcINfaMx/7/DOOaFCuOMezTj9f+6f1ZWJwy2gfzUB4dQzdUqHKrHu4vzGCvNOIWYaj8XPvP/a/dg23vx/e9yh9MOxiv/u9j4N6wdIuaZ+U9WX7uw2awX/vp+t/75Vef9Ou5IFzK81Xxi6DX//IblmeVX/Hqf3EX1gcVN9cgEATGAwF2In1EHxrz9Du9w060eG/MG/ueue957eoa1BHj0eLRquXC5srpqu28mSpouiq8pPlsvfXWTWjLU2ZbDLLEW4ZkOVfAg2YriS0qhNsgsGJtRQIRsgXFAHHf6oTvViJsizForIrWpGgVFKGqV0m7rwz/O6/w7W9/u12Vb9W8zqJY5eBVs8ohfb3Uo7ba8NYZaPKrLUb6cq7155LKQ9IHgdmKQHTBbO3ZtCsIBIG5hkAtzJSdVwQMDr7Xfdd6VvfmGlbj2t45d9rPdsLaKoQYeUMhkoUcIU+HHHJI83LZ9sFD5YUafWEv4UfG3Bfqu//rXgmEV9Z/4AMfaN44LwtBvJRnC6QzEDxlzo4hXLxptUIqzzr3YFBZSa2VWHnLwwqI8hBCJDIrIYV6rkEgCASBIBAEgkAQGH8EOATYgxbkBW8M97Fd244u9mA981IfNqFn7MiE8UFgTp0hI8DecGhrolceE3BeqTqDwMvlmW2DzjogQINbdRAgXrEiX9zF9Rp92xURvn6QHvHyClL7fm17tGUS+XM+xNu2/uM//qP9SDVCVuUZgLZGyhMh88yg8xp8g8xZMnF81EWchCAQBIJAEAgCQSAIBIHZgwD70ZsT7Zayi8oOLjak73ZlIWDsUsde2IzIGTu27MnZg8TsbsmcImQI2Be/+MVGfhy0dk7MIcnax6+rCTLCYw/uIMkh6LYSOiRebyAj8P7n2fLGMx4wPwLqO6LE0+awu/Nq7iN/vHI8cvJA0hBFg6dfnrTyVBeDzdkxbzPzwg8D8eyzz25l8JI5VK68rIbM7sGa1gWBILB4CNiRYCHMjgdGTF/XLl6Oyz6VecF2e1vpzQu1TX7Z1yw1CAJBYDoRYC/a2cUO9GKhL3/5y23M++5lHsa/dxiwI9m14jpDHJtwOnth6ec1p7Ysmoj9to63j1lJqNUDhMik5spLxhOFvJnsTOJIGjcwksRr5ZXKPGHIFjJH8H33zMs35GUFQ14GyRvf+MZ2HszLQZwv43nzWn3bGb3Zcb/99msk7Ygjjmier3I9634kUB4GFmPC6/a9Bho5Q/ScM7MV0j11TggCQWD8EaB73vCGNzS90NcHC2tZ6aqZ3L7M678odVxQG2zfpg+9JfLwww9vOnlB8af6zM6Io48+up3JXZS6enGSly55Zb3fdPPa+0984hPtIP1MYjysneYZC3PqY+5KCAJBYHYiwM70Nl8esgMPPLDZln7E3uI854HfJvMugQMOOKDZlX56BTljsyaMDwLLv/Wtb33r+FR3yWpqVbTOYnmpB+H2Ig8/0IlAedOhVUfbAIvoEGjki+fLdkakx3ktnikfEyGi556XffjtGtsKPeO1Up6tiV43bQK11XCNNdZo+Vu15alD5LxeH7GSv++12om8IWHe1CgtAqd+L3jBCybeysjL5xfced943DIIl0xOkjoILGsEjGFbUfymFB0yVY8OPWQBh76oBael3RY/y6Gu9NJU6zlZnSxY0cO2cu++++4TOxEmiz/V+4yWiy++uG0fpy+nqiPpU6vSXlvvNfgWwvwItsWxZa1ryYX5B3n3cwPamBAEgsDsQ4BepXvYjhbi/SRTbUn0DDFzrIU96Tdt2az9dw7MPkRmZ4vm1JZFXVgGA4/WJpts0iZ8P7JXkxlBJ8ji8WIhRj5IErfx4EQufpGnEpF11123ebRMmAwVZQlWZnnTrCi7x2NWZ8Dkve+++7aBJU0FBpnBheDx0nmlPqNFfdXRtkaEzcpt5VVpcw0CQWA8EaA7LOgY66WzptISb221wGQXQL0gaCrpFjeOFyPx0jAOfJY0IJH0qet0ELyqjzzp7kXBUloYSmt7uQUvut1ZDm+/tSI9U6S32tG/ao+6LWqb+nnkexAIAuOBAF2DeA0LdEH/txSHxcm90UdgzhGy6pL6sVBbAe3DrUmtiJl4/e+TGUb9OJV3/15/D2+dXbDVRZn9Z74jaYOEz33GGcOAweP/qmuVZ6DaMywMPqs4uQaBIDAzCPBSnXHGGd2ll17aPFV+S9Bkabs0b7jxap8/IsNLb+zaoseT7tkxxxzTnX/++W1bygc/+MG2Mqrmzp56Y+vaa6/dtqVceeWV7fzolltu2RZ5bMnzO4u8/V40JL9///d/b8SG5/3cc89t3jMLQhahttpqq6aHpLM1Tz50jXohG//v//2/toA0mU7xm4x+zF5blIe0vPa1r+3WXHPNtqil/aeffnp7iyzdtcUWW7SXJS0JUbTL4DOf+Uxri63l2ui3I+VvwcvLmj75yU+2A+4IlPZb0OoH9X7HO97Rdjb4Dck679uPM+w7vV0LY9pKV9tRcdJJJ7WdC/qOJ80Ktv62W4IcwBZxtcBn66OVbp6tCy64oPWz737nctttt21nms8888yO19HWeIt2ZMGB/f333795TJFuOyLUxVxja/yy3j45DK/cCwJBIAgEgakjMKe2LPZhYWQU+ZnM4BiM3/9/cb4rpz5Vdj+fyerhvvg+C4oz2bN+GfkeBILA0kUAMeBBOeWUU9pWsp122qktqDCi11prrWZIH3bYYd2mm27a+V1EZAnJ8IyBzRuPuPmtQgY+kiTwkB933HHNoN98883b9ruzzjqrechtn/MmLos+yJSd6LxkFpIY64x/BMk5BHl6uRF94rcWEQdbob0xVj4IhTYgBLz1k+kVxMLbaNWTh945BuTGDgNnb5FJ22cQJmQFsbAToL8ANqwn1BOpVI/+4pY6yQPpcp7L9hzb9ZwPs0vAVkfbCddff/1uhx12aOdqtWnVVVdt54Ivuuiitq1HmQgVcrTyyisv1MsF4+9+97vdFVdc0Q7TO0Rvp4LVaue3bH/Xx7YMwRkuCKLvtjuqq59QIQ/uS6+/EXX11A4YIrXqqr98J0POOjuX7F61w9k6OzPUH6G3vVN9+lgNwzX3gkAQCAJBYHQRmJeVtdHtnNQsCASB8UOAYcxzU2+/QnIY3cgUA5qHBunipeJJ2WyzzRrRQEIQKCQIsbIdjX4uHe3sU50VsJWZh4THHFFDmuTlo3zpfRd4YLz0h0GPDCFM0iMoDHv1sA3PM943af0cSHmyqvzBnpBPvWFWWkREfQTnteQjP3F8vvKVr7TfX7RtW9smC9XmulY83rHLL7+81dfZX/VD2o466qhGipzdVY5zFojMLrvs0uqjnvJCVBE45Gr77bdvnklEcbL2VbniKE8+vJRe8iF/Z4Z5E/fee+9G8OQDc1gjesij+vFy6RPxEDIeSnVQT3KgHeTj2GOPbUQWuURsnVnWN+SnMOONhLF+kxc54z0TFtaOak+uQSAIBIEgMHUEJluUnHoOU4s5b6YKmlp1EisIBIEgMN4I0KmMdx/GNk+U81AMZuTJC4OQtXqGzAi2OgrSD37cZ4j7MO6RBN/lPSxN3XNFRIoIlkFvu59XJcsHOXK1ZRqh8N1ncULNJ7w22lxt9B0eSCQcKt6wMqrtnlU8ni6ePFekVF7a7zuCoz0IEs8XUgsXpEhZ4snnuuuuay9nkg9SjNDIZ2FBHISMN/BrX/ta894hrPLxFlxvxy2CiTR64RJvnu2Mtkt6pj6IlnrYvujZZO1QHvwRMQSz3x+8qfKDp3aJ25eBhbUlz4NAEAgCQWA0EVi8WXc025JaBYEgEARGAoE+qVAh288EXiTeKZ4WRElgoDPgeV3KuG4PFuMPcldlIy+8YzxuyIctkX6zEEkqElNEQlFFXBalWOn72xr9lEf9Bo4tftolICpIEy+fcqYStEOAky2VCBYyitRVvoiNM1QICo+cc3XKqTr5/UfbMhEzZM12RiTm4x//eCNIvIZTqY848rctEam1PRTxk6dtoDxd+g4pdB/GCBcizEOGVHmGwMnH8+p3bdQObap6a7syB+UBYdan2ij/Oj9WWE0F18QJAkEgCASB0UNgzp4hG72uSI2CQBCYLQggQ0ceeWQjYIxtBAARc67LdjQv2EDSEJV6S6FnCIezUH5m48ILL2xkgrHNULc17eSTT27ERF5+aP6cc85p29m8hp3Rj3hIh6AgAwx/L7dw9WOiCBRjHlFBDOTrvJKXSCBp5WESbypGPtKABPH6Sa9NCBDPkC2EtgjyJMkfsbI1r0jjsL6Gm7NX0iFgPG3OcHlzpO2PCJ0XlyAvzm6ddtppbfseoiRfL9DgCYMDL5j8eLNs/4MLL5W4fnLE/57BYZD4VN2U78Uc8EDexHVuDOlSP0RXfWAPV2fB4F3YeqmJuupn3jUkyvZD/UMG1NPPmXgRiW2IiB6y7uyZ/tMfSBi50B/OEzpj54weubIt0hZJP3MA86mQy2pbrkEgCASBIDA6CISQjU5fpCZBIAjMEgQQAQSIEY+wIGHeMmgLGnKECCAxDHgeJT/BwXvG6EZkkAlGP2Odkc2IR5wY/dLzyNT/njtLhDT4IBcIlzIQEPFtkeSBc3bJjy9L7xlvC8KhXB8eHFsX1dP/CwviyJtnjOfKmSdkRJlIIlLhpRvuOSunHQsiDRUfcdF2xMxWTiRKG2GFlCGsiKttl15SguAgZHBGXGHjXr3YBImBHYzhoq76CCFFrBCqYUHfIT8wlbfy1d897dO/SBJvoP70tkT56wdtRagQLO3gKfMcuYIZ4lbtsB1SXeV16qmnNgInD3kiWvBTB/X1PzKOLHrxStVDfpMRy2Fty70gEASCQBAYHQSWu9USXUIQCAJBIAhMCwI8Il4+4U2Hb3nLW5pnDEHxKYOZt4jnyBUZ6D9DHJw1q2CLnec8UO7Lg+Hue/2PfCBH1Ll8xZWGUV/B9jZ5i+OZfH13LqmmAXnIezKCUnn1r9qL2AnIRhEu95Wnje55Vu3vp+9/V0d5VX3qmXaos/r12+G+j/uCspSpbG0oz1JhWlgWRv18q6z+FY7Syr/aVm2Ck3ZVP0hXuFYe0iurj3nVdbJ2IIr99itHvStUG/2vjdrq+aL0WeWVaxAIAkEgCIwGAiFko9EPqUUQCAKzBAFepkMPPbR5TdZbb732OniejYQgEASCQBAIAkEgCAxDIIRsGCq5FwSCQBBYTAR4LHg5eDJ4YMp7tZjZJVkQCAJBIAgEgSAwyxEIIZvlHZzmBYEgEASCQBAIAkEgCASBIDC6CPzvj9iMbv1SsyAQBIJAEAgCQSAIBIEgEASCwKxFYF7/8PCsbWUaFgSCQBAIAkEgCASBIBAEgkAQWAQE6kVMi5BksaLOm6mCFqt2SRQEgkAQCAJBIAgEgSAQBIJAEJjFCAz98RWv6k0IAqOEgNdLe1lCPLoz0yu1UBO8lz7eZNsLQBKCwHQikDE8nWgmr+lCIHI5XUgmn+lEwDy8sJ9lmc7yhuU1lJD5fZQYCMPgyr1lhUD97hJSlrD0EfB2QGQsizNLF2vGid+u8ltWIb9LF+u5lrvfJWNgkK2EIDAqCNRv6mVuGZUeST0gwOYhm7VgsCxQGUrIGAYxDpZFd6TMyRAomYxcTobQ9N4vnOs6vbknt0KA8i+M61rPcg0CS4JAX57635ckz6QNAkuKAFksozdyuaRoJv1sQiBvWZxNvZm2BIEgEASCQBAIAkEgCASBIDBWCISQjVV3pbJBIAgEgSAQBIJAEAgCQSAIzCYEQshmU2+mLUEgCASBIBAEgkAQCAJBIAiMFQIhZGPVXalsEAgCQSAIBIEgEASCQBAIArMJgRCy2dSbaUsQCAJBIAgEgSAQBIJAEAgCY4XAvMnecjPZ/bFqXSo7axAoeazrrGnYCDeksK7rCFd1bKsG2/5nbBuSio8kApGtkeyWOV2pmk9KNuc0GGn8yCCwIHmst4Iu7crOm6ygye4v7Qol/yAwDIGSx7oOi5N704tAYV3X6c09uUEAtv1PUAkC04lAydZ05pm8gsCSIFAy6ZoQBEYFgVGQy2xZHBVpSD2CQBAIAkEgCASBIBAEgkAQmHMIhJDNuS5Pg4NAEAgCQSAIBIEgEASCQBAYFQRCyEalJ1KPIBAEgkAQCAJBIAgEgSAQBOYcAiFkc67L0+AgEASCQBAIAkEgCASBIBAERgWBELJR6YnUIwgEgSAQBIJAEAgCQSAIBIE5h0AI2Zzr8jQ4CASBIBAEgkAQCAJBIAgEgVFBIIRsVHoi9QgCQSAIBIEgEASCQBAIAkFgziEQQjaky//5z392V111VXfLLbe0pzfddFP3k5/8pPvLX/7SfsR1SJL5bt18883dj370o/nymC/CwD+//vWvO5/6wcR6/Mtf/rK7+OKLuxtuuKFu5ToDCOiHP/7xj/P1Nxn4zne+0/3pT3+6XT/1q1RpL7roou73v//90LjyKtnqp833IDDKCPzrX//qfvazny10DFx66aXdb37zmybjdKHPVIKxpQxjiO77+c9/vtC0//jHP7rvfe973d/+9reW7pprrul+97vfLXR8/f3vf+++//3vd9IvSpCObh/UAz/+8Y+7a6+9dqH1XZSyEjcIBIEgEATmDgLLH3jggW8dbO5cNxhNuEcddVT3pCc9qbvrXe/aJnrG+Gc/+9l2zw/IMRom+2FDk/ypp57a3elOd+oe8YhHTBqvcD/55JObUfH4xz++TeiMnrvc5S7dD3/4w+6rX/1qt+qqq3Zf//rXm/Fw3/ved6H5Vb6z6Tpv3ryGzUwQGQbk6aef3jGyHv3oR3fKRtKPPfbY7kEPelD3zW9+s7vjHe/Y3ete95roC4bkFVdc0Z177rndxz/+8UawH/jAB3aXXHJJ69urr766u/LKK5sx9+lPf7p1zYorrtjd4Q6juSaizWQc3q6zMVT7JhvHM9FmZS+//PJNtpc1zoWHqw+ZJ5+FD9JzyimndCussEJ3v/vdb+J+Hycy/p73vKctIiFl9Nc3vvGNjm4zZhYUTjjhhEb4HvWoR7XFDHrwYQ97WMNnsnRI1THHHNPyv/e9793G7XXXXdf57nq3u91taPrLL7+8pVtttdXmG8eTleM+TH772992Z5xxRrfSSitNpLvxxhu7j370o608utrYGYVArvQdfabuCUuGQDBcMvwqdc15kctCZOpXMli4lV7up46M9tFYtO/0ZcnmYMphWA/GmY7/501W0GT3p6PQUc4DGb3wwgu7ddZZZ2LyRar++te/tlXbz33uc211lLGw9957d3e/+91bc37wgx90d77zndvkb4XWwGC4/OIXv5gwXEzcv/rVr7o11lijET0JkbcvfvGL3c4779x9+9vf7h7wgAc0o+TMM8/s1lxzzRZPGiTxcY973HwG0ijjON11K3ms63Tn389PX8N7m222aYYlcqw/9ZXviNjHPvaxbqedduoe8pCHtP61Ys5IfeQjH9nI86677triIuYbb7xx97SnPa0Zaoza7373u81QLGOX0cr4rXD/+9+/kXD9Xp5acRE4sqgOM4FDlVHXqt/SuMLPoofJpgID/rGPfWwHj8kUZcVd1Kt+sMDCA23sMbCnu4yp1Am2/c9U0iyNODxSPE3kXH3osC9/+cvdbrvt1j3hCU+YIDV0GD1Xda666Dc68fOf/3z3pje9qY0Lnn0ky3gh39JNRlbsQFDeG9/4xraQdc973rMRHGPOwpbyhgW688lPfnIbGyZUMmMRje7Vt4cffni3/fbbtzZU2cY3UrXKKqu0etHRg8H4Jw9rrbVW0/F/+MMfGhl9xjOe0cFAGoRz9dVX7zxTTxi4Kn+y+g6Ws7T/H+ynpV3ebMvfgtRPf/rT9rGott1223X3uMc9ZlszZ7Q9JZOjMkZmtPFLUJgFX3qLJ9589aIXvahbeeWVm06lr+nQ8847r3v1q1/dFo6D76KBPQpyOZrL84uG47TGNskyHhjQyBmj4pnPfGa36aabdvvvv3/33Oc+txmJJt+a4FXgS1/6Uve1r32tTc6UOPIk/PnPf24EjsFJoVtJNWnXSoYVZUYnJc9IFN9qck3qjAwGxPOf//yOxyWDbFq7e2hm3/rWt1r/WZ0/8sgjJ0iR7Ur6jgFoJdwqOxkRkDH9U8ZqGZ88Z+REf/ogUz59bwHjzhbHAw88sHlFreyTITLzrne9q0POGcs8qbxv7pf8DG3AGN6ELU8HAlueRB5JiyMM4OkO8EdukeNsCf5f+eWZshC17rrrNmwQEsRoUOeQTVt6XSuQzyOOOKJtObSQYGx85jOfafGQIx5+fVuLVZXO1RhBxp761Kd2D33oQxv5u8997tPGC5LXJ+n9dHS1z7Oe9awW1zN1pi/V2YIW3d0n2sYN+TJu6V1lG08nnXRSkwXkyv/GuWfVRjJoO6Sx7J4yfIqc0RW86XSHtAmzAwGyxxA+66yz2rX0/exoXVoxLgjQRXQUvbjHHnu0RaoLLrigHavQBp77r3zlK93ZZ5/d9NK4tCv1nB+B0dhbMX+dltl/JlorrgwKxrNgNQLZQowqMKAHV20NFPdM8sW0yxCoVWfbaBgnRbYYgpdddlln1ZUhYrK3JZEhY6Jn1KgL49FWuJe85CVty2TlW/XJdXoQ0P88Ugy2TTbZpG21cg6M91N/OOeHOCEPJmZKEnnXb7xcDDSGKflAJni0pLPFkZGn3/Q5b4RQhu5mm23WVrR4bLbYYosmIwgdUk9WeFQ32mijlu6www5rxvJ6663Xyp2eli/7XHiGrfoZB1tuuWWTeYsiMIfz4Hhb0hobUzw/1QdLmt+4p4cvIkHf8fLarsv7i7AySAVybxu1gLi84hWvaLJozEjHE/aUpzylQ+wQJWPi3/7t35qHU34MBuSJDuzjLk/pt9566+Y5lr/62E5oEcIChjzdq8BQtvXX+DT+jC950tPKVj/pnPt1pu3hD394q582qpcFNnWVJ/1svKp/6W8rz2TEOPRcPsayMa4M2Mjf+KcvLKKpI4PIeKfTaw6pOuc6fgiQrWc/+9lN3yPbCUFgWSBAB1ucMjfSz09/+tO7o48+unvhC1/YSJp7L3jBC5qO7duqy6KuKXPxEQgh62HH4LDlhiFNEQu+WzHuGwM8GAaHibqC5waCq22NzhoxwBkOSFVtWfO8jBH5MBAYNL6b7G2BYbzwxJnkrSgzFFydh0hYegggS6eddloztChAsrDDDjt0D37wg1uhjFOK8IlPfGIz3PSbPtefPGb6VjpeBcTKFcnjUUM2xGXAMUgRkJID/cp489wWWIaeID9y6DkZ8LHNygKBlf+S0aWHyMzlrC3aDQfeYoYwnEw0yC8j1zPjgPHO+NUX0sEYybXl13hCZJEtBrXAm+MsnzgMc+lgWs+NT6Rbf6y99trN0znXFj20nccQWYE3WTf5u0fuYIWU0E289Yiz+5VOX8FQ/5BheOsXaehAJEnf9HWmvvHiDl5Q/Un/yaOCHQOI1nvf+95u/fXXbzKvPsaJRQ/bCn3E8b/guzHobBl5MVZdyZPxbZEL2VIPW3zk5Tv9awcD2TOu5fPiF7+4yaR6e8YLZoFAm8kgMijIA1mzGEN/26YpPzgVRi1i/owdAvpaH1pw1c8JQWBZIECf2YXDFqGL6V+7qejbWhyig82hZDZhPBEIIbut30zKiJRtMwwIyrcE/pOf/OR82wU9Z9wxXKyeMZz7wfaGl770pW3wmMDt6y2DvR+PwcHz4dA7w9IKh2CLmjwNNtsgxWFQlAHZzyPfpw8BfbDhhhs2Iu08k+1bCBDsGWgMzDLcbRFglCFdtipRlowypIDxyaOJyEvrDALDswLDjSH58pe/vD2v+wu6UrL6n/JFFMngbAzGobbBmcHMqIWnM3vGkv8ZR8akeDwRnh933HFtEQQZsC2Y98ZLeXjXbPM0lsuDUeMWnjwp9dIJJAR5M3bn4uIHMkLebS1EQsg1PUgHOUtlsocZbPoGahGS2gFgHEiD3DIS6DLbeelWZZTBYAwZL8aZ/Iy/E088sfWpvtLfyDL9h7TRl0iSPO0s4EFDviya8WwJjGfjTd/7jlgrTx2RQwaNXQi2/2ywwQYtrXTapX3kB2k3nt2T1hjmpUbkr7/++rYYpzxED1FTV/He9ra3da973euap0+5ykwYfwT0rU9CEFhWCJi/6CY6UqB76FWLQuYzuiZyuqx6Z/rKDSG7DUuCzQAxWTPMBMYZQWcU1Na0urrPozZsJZ0h4EUEJnZGI0Pe5D4YeEkYCcqRj9Vbhon4grJqYjfo6v5gPvl/ehDQR4izrVWIASPM2Rcr6/pTH+izxzzmMY18kZf+yyCQCHKBNOk73gTnWMiU7S68qrYY1LmWQSI/lVao42wlY9qPeH3hC19oixGbsRVujwAAIABJREFUb755m2SsBtpehqDZ3okEM6wRB4axbWK8F54xqvXL8ccf3735zW9uxM6WuD333LMZ38iC/tS/grx4Xxj3DG/kTJy5GEzoZJdeQ5zoHpggTWQf+R0WpBMfWUKOYSiuRQgGBFLMY0bX+V5BP1jQqrLgjkzZusgThoAhX0i4PkIE9RcPlmsRbGNOPQUeVfpUXsZX35BWDqPGQgpvXOloceRnV4NytZt8GMParQ2In7p5Dh8fC3jPec5zWjzx1RvJVC55Ut9++dXuXINAEAgCi4IA/UIvlT5x9YlNuCgojn7cELLb+ggRssLrvEEJuondfd4M3ioTP4PCBG1yZ7wMC9JZwbWaisxZ3RgWGA0mcIaKPKUz8HwEBgmjQH08YwQkLD0EKDdbtj784Q+3LaMMeUaafmbwlVFJHpxt4eHSbwLjEgFjiPKu8XYiB4iDOJSp/N1jsPWV66K0iIFodYxMzMZgqyfseEe8REGAH9yMOUauDyLMu2VMILreZMmoRlhtEX33u9/dVg8Z7widfpTOm6mEWiCRt3S1rW02k93W8AX8IZ8WhSwo0Uvk2JkvZJeOWtDkX/0lHqyNBfoSadZvtmCXd6pk17jqjwNpeNIseuifWtxAonwqnfFjocO2wMGgj3nMECiES9wKSBhSRSaQMu2jowX1ty1IIBPGs7O8zpIa03Q4vaxMOtminTlBXGnpB2Wfc845rd62m1d9W6b5EwSCQBBYTAToFrsWSgfTT/QQ+5SeTJgdCISQ3daPg0JN+BkLvFy8ZwwCcQwCxkLfQBgUBWkZjD4MPYaHtDWYKr5tMYwf2148t9rKwCxjkVHEmDHpl6et0uY6/QgwoGBve5aXZjAOGetFoBimVsV50JAG3jSkmpzwDOgnq/aMtSLrvAWMOcaeba7nn39+62/buXjgpJlqoIQZlLaVDcrrVPMY9XjknSENe5ONs0G+M4b1Txm5iCncBeOqP7Z8F6/S9I1+49FCRz9Unv17c/E7govI2MpHzngqncFCSmC4IJkzbniz5GERypZB3mX5Idm8Zc5uVZ/Bt58f/WZrt3FHBvQJwqOfhX4flT7t36v+cs/WSFsmnedC7ixmMWiMNTq3vNwW4Ixt8kLWjG/jVzz3yCFy6X+ypI7GsvbUG8+0W7vUmQ6QP68fOUsIAkEgCEwHAmwNC0R0Ij1L19AxdFRfj05HWclj2SEwdWtw2dVxmZRsEjcRm/y9RQsBM/kSfqv1BsMwg0BlvVnMCqk0Jup99tmnTdQGUT/Ivz4meiu2CJrVX0YDg8jLQBj9yJq6TFZmP998XzwEYGs13DY4Rjsj0so3I8u2Q+fIvIVz9913b+fDECTbFPUR8oxgSSMfhqe08mL0kR2ywFhj8JIhfb+wwBBklKqPl3kwcJU/lbQLy3uUnjOAGbxkXYCXyYc30hvxBOSMB0bweyxe3qFvjBeebZOWycoWRn3CI2McGke8nbaRlSdEHwwbS+oA87kWLATZmkheS3fBjIzzMJJnOmpYEIe+JPv0Fr1nXCA39KWrPrAgQY/V/cpL31vEQOb0ZXm1yHx9r7iuCzNALKgYp7zdyKQxU9vRS4fyolX/K58+R9DIE9kTGDvaXSRSG3n6bFlWVzJHVswPrnSA50Xq+nXO9/FFgE7Q9+Tfgqy+LtkZ31al5uOEgJdU0U1+W9EisQUni2XsxZJFOtynzrsvTE+OU/vnSl3nTWZ8THZ/tgOj3WVcWGE1WQsMcquoBgCDw/a1wsjVVkYGuO/OuzCYDRQTPSUuT1tmGC/iVFp5I2q8LrbA8X7wrJ1++unNO2e1l3fFhxGhHmUgzPa+6Lev8Kpr/9l0fdc/Vr4Zogx6hpeVdf3ntdiUnZdFMMR4uGx3koaM6DPyYStU9S+FiCDoL7LB0EPEyA9i4X8y4qwT4uGMFPLOoPSj1DwG+v0jH/lIIxlW67faaqu28i/PpYkFTCv/uk4XzsPyIf9ehGLcMKa1DwHzkhXYCbD60Ic+1HA3DowXeNpWZyvZQQcd1PqCR80PuBp7CIa+8ntyDCtnjBA8xr4+RRzgbFwjeX7WgEG97bbbTpQ7rL7Tda9kpa7Tle+i5IMEkzO4kXmYIrO2gZJpOossw8/iQMlDXfWL/tB3Fg2k8UIbY8cWSGkRIy9Xefvb397OWiEuFigEfYewOSembIavPuelk9dksl7lD2KHSCnPWCYDdiAgYn3dqc4V6rtrfTwrg6by135EjHzS2ca+UKvXtqnTG9JV3aqMZXWtuo9KfZYVDotbrrFx6KGHtq2oPL/6fd99920e4Nm2KLa4GC1qupLFks1FTT8X49Ol5iQvjKN/LJL5GSTkDI7mT6/BZ5v4PVPnqT1nf5R+m4u4LUqbFySPM4XhvMkKmuz+ojRwHOOaTBngDALGnFVdK+u20jCgGXLe+MXweM1rXjMxgYtX5wZqhVX74aijvbbbm+AMJPf6+PKsWO1nLDrfYKXaSnNt32FIWL09/PDD21u8Brf+jCPOi1rnwquui5p+KvEZb164gQQw6hAtBjtiwHOmf0zCVqcOOeSQRqB23nnnlrXVK4ajDyPSRG6LASNOQNQYc7Y82tKK9L3qVa9qhq8fHGfoSsMjQPaQNuedGK5kUr7KVkfPlyYOhVWVUde6vzSuxgCDXdBeZcLOROTjuzGBEDPaYWEyEheR2HHHHScWO4w/xr5n0r7sZS9rWBqHnrnn2Stf+cpGfMWF91ve8paWh/9nEmNtrc/SwHZhecLEamvJmLrA1lk8OFtxtfXWhO+Zl1dUfY0Ri03Of5FrHrAiLdLQnRYS6C8vVrHowFsFbzJvbCGDtgDbMqhfEDG6zlbxvfbaq40J5Q0G94w1afrPtUc9jOEPfOADzXOHtAv9eJWfe8aVdL4Pi2NcqisdUPoaXmRRHbyAxplH3lkyqn2jECZrzyjUbRzqQCZ22WWXbvvtt286yHggy67D5GQc2rSs61gyGfym3hOwsjjPJqU3ySUdQw4Fb4C1MMQxUPOe53RUwtQQGAW5XO5WVspA4AkoQ3Lg0az/17YTxrOVYgINBwPAxCswQOBj1RUxqonXW/Sswva3whRY0jBWbMuhzA2q/kBhiHtui5bV4TJgGAkVDDTGjPwZAHNNmcHCSj0sl2bQ1/rGxwq4fmHAM8goQUH/2wbFm+KsDGOvFKNVVB8GrvRl2JMjdRfPkNPnRSiWZnsWN+/aKkbulnWwSHHAAQe0LWGutrUV3su6bktaPjmDNZyXtmwvbl3Vy9izOGGxClEzJuggcm081JjRFvGRF2PEOOBtYyQIxlf1nbxsIaUTjYUaG+LwGLsyMkr3DtYfUUTmGCMlr/04xph87GbwpkbEXT0Hg/FoeyOdXwsrg3F4tNWXvlcf7Ta+eVarbdps7MNnWH0G81za/8NT3cjWkGl+aRef/IPAUARq4cP4jFwOhSg3lwECbLWSzWVQfCsyhGwAecaEydZktiDSI47JveJQLia/YRN+FcHAEL8m8LrvSjHJ03WyfDyXfkFl9POcTd9nipD1MdMXPsPw1pcMUX1Vxqm0+ogMGdjSlnz08x2H72VQjgIhY/iWgW4RpM72jAOOC6sj2YL1KBOyagOZJ9ODunGYnBsH4hsHw8aPPKUTzxgaHCfuV1lV/uB1KrpaPrA12U5WD/mKo12TxVEXoV/PwXZPpT6DbVia/4eQLU10k/fiIlBGbwjZ4iKYdEsDgRCypYFq8pyVCCwLQjYVIAeNsqmkGYc4o0TIYMywFhjMkxnN44DrYB21ZVwI2WDd8/9oIxBCNtr9M1drF0I2V3t+tNs9CoRs4a95G20MU7sgsEwR6K+YL9OKzOLCYcy4TAgCQSAIBIEgEASCwGxE4PYb6mdjK9OmIBAEgkAQCAJBIAgEgSAQBILACCIQQjaCnZIqBYEgEASCQBAIAkEgCASBIDA3EAghmxv9nFYGgSAQBIJAEAgCQSAIBIEgMIIIhJCNYKekSkEgCASBIBAEgkAQCAJBIAjMDQRCyOZGP6eVQSAIBIEgEASCQBAIAkEgCIwgAiFkI9gpqVIQCAJBIAgEgSAQBIJAEAgCcwOBELK50c9pZRAIAkEgCASBIBAEgkAQCAIjiEAI2Qh2SqoUBIJAEAgCQSAIBIEgEASCwNxAIIRsbvRzWhkEgkAQCAJBIAgEgSAQBILACCIQQjaCnZIqBYEgEASCQBAIAkEgCASBIDA3EJg3rJnLL798t9xyyw17lHtBYJkgQB7nzZvX3XLLLcuk/LlW6B3u8L9rNXe84x27W2+9da41f8baS64j2zMG95wqyDxuHNObGcNzqutHurFk0odMRi5HuqvmVOVGgfMsd+uQETHk1pzqmDR29BAwWCKXo9cvqdGSIxDZXnIMk8NwBCJbw3HJ3SAQBILAIALLmpQNJWSDlcz/QSAIBIEgEASCQBAIAkEgCASBIDD9COQM2fRjmhyDQBAIAkEgCASBIBAEgkAQCAJTQiCEbEowJVIQCAJBIAgEgSAQBIJAEAgCQWD6EQghm35Mk2MQCAJBIAgEgSAQBIJAEAgCQWBKCISQTQmmRAoCQSAIBIEgEASCQBAIAkEgCEw/AiFk049pcgwCQSAIBIEgEASCQBAIAkEgCEwJgRCyKcGUSEEgCASBIBAEgkAQCAJBIAgEgelHIIRs+jFNjkEgCASBIBAEgkAQCAJBIAgEgSkhEEI2JZgSKQgEgSAQBIJAEAgCQSAIBIEgMP0IhJBNP6bJMQgEgSAQBIJAEAgCQSAIBIEgMCUEQsimBFMiBYEgEASCQBAIAkEgCASBIBAEph+BELLpxzQ5BoEgEASCQBAIAkEgCASBIBAEpoRACNmUYEqkIBAEgkAQCAJBIAgEgSAQBILA9CMQQjb9mCbHIBAEgkAQCAJBIAgEgSAQBILAlBAIIZsSTIkUBIJAEAgCQSAIBIEgEASCQBCYfgRCyKYf0+QYBIJAEAgCQSAIBIEgEASCQBCYEgIhZFOCaeqRfvrTn3Z/+ctfultvvXW+RL/+9a+7P/7xj7e7f/XVV3c/+tGPultuuWW++PlndiNwzTXXdH/+859vJw/V6n/961/dD3/4w+4Pf/jDRJwbb7yxHg+93nDDDZ18//GPf0ykkQ8Z698bmjg3g8BCECBL1157bffXv/51Qr6GJfnBD37Q/e53v2s67eabb+58phLoTWXQndddd11HZy5ML/7zn//srrzyygn5/tWvfjVUzw6Wbzz85Cc/6YyZRQnKM54GMXDvN7/5zULruyhlJW4QCAJBIAjMHQSWf+tb3/rWudPcJWvpt7/97Y6xgXT97Gc/u93Hsw996EPdz3/+8+5JT3pSd+c733miwA9/+MPd9ddf3z360Y9uxgPD4e53v3t34YUXNsPb/S9/+cstzT3vec9uueWWm0ibL+ONACNu+eWXn69PTzjhhG7evHndgx/84O4Od7j9ughZO/TQQ7u///3vzTi95JJLOvce9ahHzSdXfWQYyx/5yEe6xz3ucd297nWvVh6ZO/jgg7v73//+k5bVzyPfg0AhgBzRQ6WL/va3v3UnnXRSd+9737vJ0zC5veqqq7r/+q//akQHKbv44oub3D72sY/t7njHO1bWQ6/yRmxWWWWVjn5EmB72sIe1cTI0Qdc1fXzEEUc0mb/Pfe7TnXLKKd1vf/vbzneLGfe4xz2Gjq/vfve7nXRPeMITWnuqjZOVU/eRrk984hPdwx/+8Il0cJIXAmnsLaydlVeuQSAIBIEgEAQKgXn1JdeFI/DABz6wW3nllScimtQ/85nPdK997Wu7O93pTm11lOFx17vetbvb3e42EY9B/pWvfKVba621uu985zvdQx7ykO4LX/hCS8OoQdx4Q3jKnvrUp06ky5fxQ+BPf/pT96UvfWnCCLzpppu6008/vdtrr726Jz/5yY2YaRWiRGYGDUEegV/84hfNkN1ll12avFnFP+qoo7pHPvKRHS+ZPJG5wcAAfsQjHtEMRV4GHzLF80DmyJr0ZTCec8453be+9a1u2223bUbwMAN7sIyF/c+IvuCCC1odXvKSlwwlj7wTv/zlLzsGvrFiAeIBD3jABDYLK4Phe+655zYcdtxxx+4ud7nLwpLk+UIQ0B+XX375hDeLN//rX/96t+uuuzbSYkGBPPEMkZ9hcmtBgEztueee3UorrdTyOv7445sMWFig5+QzLCBi5513Xvf617++5Y/0WYAg+8PGSeVBjyJwFhzIr/GjDDJF5x522GHdDjvs0K266qoTZZO/M844o3voQx/a6sgbNxgsummjhTW6HB7Gsf+llwYWFtJ+//vft486e0YeB/EZzD//jwcC5Omb3/xm96lPfartaFhvvfW6jTbaaGLBazxakVrOBgQ4AU477bS2I8BC0ote9KK2YEXf2W1D/5oX6TvzaXTQ+PX67a268WvDjNV40JvBMGYwWI0tb9h973vfVp++ccuwsHLKoOFFM1Ce8YxnNMN1xRVXnDCUN95445ZXBtKMdem0F8R409cMRIYrgoKkkYu+TJAF/czQY8ghWCb/yy67rDv66KO7pz3taY1wMFSRKmnJCkKPeG2yySZt9b8awDDlnRDvG9/4Rtv6tc4663SXXnppt8IKKzRvLiIjPdlbbbXVWv2+973vNWKkPtMRtF+dtV97BgNvAk8IXMTlxUDK9t133yb7g/GH/c/gZeB///vfb2RyWJzcWzQEyAjvq0UnEzydRab0UV8f+U5WGAD0Xj2zoIR8If76mAwwECwGGA/kDoFh0PbTqaX4ynriE5/YyJXy1Uc/kxP3hy1AWNRQzqte9aqJsSAeUuT6rGc9q3nL/F9ETd2NJ+Nu9dVXb8RKPp///Oc7i2ml43/84x+38YHIkU+LanT3U57ylFZfuyCMNe21TdhCCHIGN+MObgnjjwCd+dGPfrTbYIMNWh/TXeSXHNecP/6tTAtGHQELqcccc0zTixwAFr4+/elPd9ttt127Z+63aGCHwGabbdYI2ai3KfW7PQK33yt1+zhz/o7JnNFgUCBg9TFJP+hBD5rvvon+k5/85MQZCsaASfrFL35xMyx4yazMMgAYHgxihiVv27HHHts8B9NlHM/5jlsGADAEyQmPg5V9xh+DVP9SomeffXb7MGCt0h9wwAEd44+MMfh85zlCmGzXMumTFQYAgxER8f/guZyPfexjbfV+3XXXbUTui1/8YvPCMRw33HDDlhdjWx0QOjL2mMc8phGnMqqnAy5lMOyH5anMz372s40kbrPNNt2rX/3qtppX54ymKve2YzJ+xZ9qmulo22zOo0guzw+Z4yFCqnnNrLqS2/PPP7+74oormty+853vbLJKF5Jl98kwmaLfBOle8IIXNL3n2UUXXTT03KSVX+k33XTTto1bWnVAhhgdxtKgvMuPLCN5vGHGHH2sHeSb3kWYxKNf/U9WxOPBtqDxvOc9r+1I4LlGHpFA5M9niy226DbffPMJbzP9Ly/pkS0r1GussUYjfrCSxj3n2ZQnfsL4I0CP0mXmbd5R3lieV7KWEARmCoHSK+SQXrSoynNb7ysgl3SWrdTsyoTxRCAesin0G6PDGR6Tv0m+gi02Jl5nfUzIjAgGsLgMAxO+lQuTuO0/jA7Gx/Of//ym1N/whjc0A4SxwOA466yzmhFf+ec6fgiYvBEpxidixTPw7Gc/uxEsRKK2C5rUESWKtLxnlGlttSIzyBciRzbcJ4cUMGNgUOnyNNlOK55FAecTedusllHete1LXnW+TF3kw4P3uc99rpXDM8cQF+SJUDLSpSHjjFZtJPe8F+QbCUXEHv/4x7dylKX+6i6tdiGT6n7cccd1L33pS9ukYrzIz5kf40W+tn/x6hkTsEHu5CcYfzUOxWMgV4CJutruKc/aaibPhIUjACfbDMmlviO3L3zhC9s2WR4BfUBO6DBbtsi4+/Sh7+QDMSMX5FY8z8gYuTUW9Olg4IE488wzW3+RI/qxgnqQGceckSNyXFtv9bPttmTFuS6LGQgX8qYe6sSzxXgxFtRD3ciPPNRX2eRfOvLk3BpvF6+bchFEbVB3Y0k+2kUOyTa5VYb08kbMeN2OPPLINu6e85znNM9dZLB6dPyu9Di9RqfQUfSYHQxkOiEIzBQC9Nb97ne/pqPpYrrawpM52gIY3WQHzeCOhpmqX8qZHgRCyKaAI0XMy1EGbCVxVsbkzhjgOmbIrrnmms14MDAYGBT3lltu2VaXGa1WZm11NIGbzE3+SJx0/pcmYbwR8CIBW5sQdQqTN4fsMOoYlfqZUhWvf3aqSBfFy8hjAPOi8Y6RiyJmVvSHyQnj0n1GJFImf4YnGVQmw9DH8wqMZNvFkCbGqNX93XffvT0+8cQTm5wyvBm/CJj96YgUw9QCAplmmDJmGc7IZXklfCfrxslrXvOadp+sF3FTF/Wt7T+wOvzwwxs2Jhir04xiW88Y5wxdxrCJx+qge4IrDw5CxmNt8tIW405dE6aGAFkx0fPwkx9kBn7w5A2i00puyWgtCrjqZ/KrP/Ujgu88rGfklg7l9dWvRVBsFfza177WPf3pT5/YxsjTa+xYXEC6EDQLGieffHKTs6222qrJGMJIjsgrg4R+FsgcGTPOtEd9Ss5ss6SjybOtZ/IlL8aaOpIjetlY1U73fWCw9tprtw8jyCKDOhpTxoRFA+Ed73hHt99++7WzHcrsLxi0CPkzdggg6uSlZL0WkMhLQhCYKQToVPqVbhLM7XQUXUT30lF0TunWmapXypleBGL9TwFPQk4R94WdEcqg4EJmFBgQg6sTJnPGAuVt1ZgxaRXVmaEKjO7K18CSJmG8EdCfiArjE1FhjDIUvUXTBM9rNSyUnO28885t9YuxapWdcUwZ8wKRNTJDnkoJy4shifgwEhET8RnRtpx58+Juu+3WDFRxy0j1XZmMTUYx4/I973lPO5ND8TNoGdGuX/3qV9vZNN4t5driZVJYf/31m9w7bNwnegie7Wrk2Vv3tNv4MBYGxwl8GK9emqAsWy9ghwTa4mhVmmHOG4fYwdYY8oZSgQGO7PKiMI7hdOCBB7Y28bL169US5M9QBMgCIkS+6Dv97MNLgKxM9sIh6cgCskTH2VJr0aDy8dyiFeOBnFZAkCxEKatIHe8WIq3P6UPGsP/tKtDnPhax9Km0iDh5JlOCLZOMF6EWIdo/XddkSjyya0w5L0Y+1E8dyKz0yF0Z3ORS3cge3U2fl5faeH7mM5/ZyifnXmLjmUW68lbLO2F8EdD//T4kdyUb49uq1HzcEKBfyF7JoqtPZHHcenLB9Q0hWzA+E09rILhhcDB6GQtWiicL4pn4bY1B4Bi5jAUHwGv1lNFSBiODpVb9J8sz98cDAUQMCdHnSJHtiYxMq/6TKVEyQQbEYTRavffdliwHduVlVd/bFhmmfZn0jCcJEWMcM6IZnwjKMccc0wgcssO4RGgqLYObl84zefKmkVv5qS8i5n972LXHd0G+zrt5Bbj8yoMiX/LMwPVhVLtX8i5tld3vSQQTqXLWUn7KZxw7h2SMMMKRWt4xbTTuatxYGPF6dYa5ZwIPGQwZxhWvX16+3x4BfYTwIzLIkv5AOMghHUZuq/8HU/McldwiOuQFOeHZspJLNhGe/tu//E8eq38QHjKjj8ml/qytkUhOyZZ68qrq90FZ0v/kRzvIi7IrkDF1VI728PLajigP486ChIUA5dLDCL9xyxumLGNDOvLo7K/tkeKaC8irz6mnntras//++0+0q8rPdfwQMBZKJ6q9HQV0Zcns+LUoNR5HBCxaWmisedTClo85O7I4jj06vM4hZMNxWeBdRibvhYmaATBoFJjkETDbfxgdDBQTOOPQqq7nDBEGjgneYXB5MBhqwC2wAnk40gjoX1sNbU9FwJEpBiQyRan2jcR+Qxi75MC2KmTCx7Ys5M4ZRK+nlzclTH76QToEjEFJefvfhzHt5RnSWBygxOu59BWvn5fvymZMe0mIOjCMkSPxBbLNI8LAZZDavsh74COYJCpuXdUNWUSW1Isxq81eemORQt20q+LLwxgxJlxr4qnnraDb/jDk1dMiieA7T0el6cfN9+EI8G7ZnsjribQgJDykto3CHEkahr3c9CNdiJTwJkknP15OHk8Ejwzq8wriVtDHPLzGSOnU/gJAX97JnnyQwMGgfrxzpZ/JBWJYMq9MRN+bysigNqk7w1v9EH1xyBsSiRySIfXzUaazdYhXET5tlR6pk4c2+D9h/BGgQ4yF2vbNG09X9eV4/FuZFow6Ao49+Iklczi9Q9eQQbZCXzeOejtSvwUj8H+HSRYcL09vQ4Bi9jIPBoZtNCb0wYBYWdE3gTMEGKIGDQPF1h1kjYHOADXAGCAmfauxvieMLwIMOcYgIs5rhNBYXdf3lKf7k5EEackVgmKV30s0eKEoY8YjQ9LKP2MQkbcwMFkgp54jf3VujVxa+S+juozMfh7uqYf8yamXfPBOuCc/bUEqGdpWi73EoLZgelbp+3n6Li2yRsadUUIy1YWxYzuiccIbwyPHEPeMh6a80Ixw+Rsv2iGN7wxkRrS8XW29ZJBbxS4jfLAu+f/2COhTpJ/nU5/DkZy4b0GJDEwmt/QY0kO30XXw9x2J93IVC06IHrlF1shIP/hffET9uc99bus3z42ZPkGvNAszhulWhjNZUjeLYcaVBQuLYtpom66rOvrQu8Zc/c/oJo/kqsoja7BxnxyX7veCD2UYt+YE7e+Tzap3ruOHgJ+iMZfTu2RKH+v/EO7x68txrjG9Y06zEwQZ8/Il9oEFoJrP6WrzPr05qGPHue1zqe7/t1w5l1q9mG2tbSwmYD9IawJnFBoQ/QHgHISXDtQg8pxSZ5RYLWakMMw//vGPt21hvtvWZqAxHELKFrODRiCZbVAMNedt9COPkHNXruTHajyiQHkOBs8oXZ5XipcBjNQx7pAThMMb7vxItPMrzqw4Y6ZZj+VbAAAJlUlEQVQ8ebvHUFAHsqQMz5AhRiVvndW1UuDOfdnaiOwxur3tjmHsLBejg3HtTBkvga1mtk46s/Oyl72svWWOF80EQPblKR8vW+AtUybj1PhA3pAoRq7X3ftdn4MPPri1j+wrCyba5qUOyhTUnZdRnY0ZRu/73//+hqvyjBXeOcY1Q95LQHgjxeflgUW1dRDr/P9/CBRpIXu8PYhLkWf3yBZipJ/162Agt+SbgVBbR52t5Z2yXZb8Ok+ob71AxniwUKEc/YPoWP31W09kDrmzkICs68vJiOBgPep/8oowIYBkwPZJ8i2vYURJu5Tho50+QhGxyteihDHld/4sRpBpwdbe+kkAOp/cJswOBLzYhl6yNZvsI+xkl75KCAIzhQBbwovj6BkLTfSt7f1FyOgkP5vExnzb297WvPjOVFvQzBw4U7205OUsd6vZNGGBCJiwGQkGgsBoMcGbsBm+Bx10UPMm1GquyZrSRtpqwDB2GQM8CjwADGGrzuIxeqz+W6F2IN75AwZRBtICu2UkH1qdYtiZsMuQdI/xyZjz9jmEB/FBrHi9Kh6vkfsMZBO/7YlWwpB7xu4ee+zRDExnV5x34TkjQ+Ru1113bb9pxqC1YMDA3WeffRp5Ydh6Y6JVXsTGzy0wVK34kkXyJx+Ey//IF/LHQ8boZByLw3AuT4J45LyIpXIZwuqMqAnIFiNGOWSfd0Je8kGmGLjyY7jDiyqSLxLnmTx5FcvARSilhZf6K0td5aEe0rqnDOSwDP6RFJQRqhT9Rkb1kX6gd+BPDmGpr+g+5Mq9d73rXU329IO0+oTcykMfO2OFhDMO6LG99tqrGQZ0JdnkQdKv+pvM15ZV8qyveYWPOOKIJkd77713e3HSMCLF2/bmN7+5O+SQQ5oM9SFVF55q+ZBrcWw/K7LVj6sN3o649dZbty3lw8rym2cWMBB9Hmdy7YUzFkXIoDa/733va+19xSte0WS3X0a+jy8C5N/8rM8ZuIj9IFkf39al5uOCgPmWDnXtz430tTnTrpaar82pHAbDdNm4tHcu1jOEbAq9zgvAqK1B0De2TeYGA0OlHxiDVjHK2DaIKHZGoyuD26CpVXz5MCoZzbbSZGWjj+b4fGdkTkakPaMweUMZiVZe9X8FssEglZ4iJROMTsYwDxAPUxnBvBaMgjIwGZ9W56VjHDIgGMeei8uTxHvlXEw/n6qvMn2v/6uc+r+eq6tnFddV8Lzuq3fFc+3/X/lU+krXEtx2FqniL+hZlSWOT5VT9fU8YeoIFG7DUugP+gtxQnjXWWedRoLhjrghP/D2QeDEt6VUfGdmySFZVQY9SUbFNRaQdQauhasyHsirMULv1uvlq4/79UMELVYYG0Xa+8/pUwSQ59h5R+RwmFyor/NrFssstA2LYzFAfS1MGLOMc3q8jHNts0jiTCWP77D69OuW7+ODgL6tD9kYJovj05rUdJwRoKvIIhns6yn3PKsw+Lzu5zraCISQTaF/CHtt2ykDeArJbhfFgDGRy6+MksFIVU5/sA3Gyf/jjYA+ZsgW+arWkI/BfhePYWkRYEGyV94MeZVy7scnd+L0FxOq3FyDwFQQILdkFOnqG6Xu+b9/r+SNjPflsF8OORUPWeunFUdZwrBnlYdyyfTgOKrnrvJHJpEoeU0WjDE6eUF1lbZfT/Xv/2+sKm8Qn8nKzP0gEASCQBAIAoVACFkhkWsQCAJBIAgEgSAQBIJAEAgCQWCGEci+nhkGPMUFgSAQBIJAEAgCQSAIBIEgEAQKgRCyQiLXIBAEgkAQCAJBIAgEgSAQBILADCMQQjbDgKe4IBAEgkAQCAJBIAgEgSAQBIJAIRBCVkjkGgSCQBAIAkEgCASBIBAEgkAQmGEEQshmGPAUFwSCQBAIAkEgCASBIBAEgkAQKARCyAqJXINAEAgCQSAIBIEgEASCQBAIAjOMQAjZDAOe4oJAEAgCQSAIBIEgEASCQBAIAoVACFkhkWsQCAJBIAgEgSAQBIJAEAgCQWCGEQghm2HAU1wQCAJBIAgEgSAQBIJAEAgCQaAQCCErJHINAkEgCASBIBAEgkAQCAJBIAjMMAIhZDMMeIoLAkEgCASBIBAEgkAQCAJBIAgUAiFkhUSuQSAIBIEgEASCQBAIAkEgCASBGUYghGyGAU9xQSAIBIEgEASCQBAIAkEgCASBQiCErJDINQgEgSAQBIJAEAgCQSAIBIEgMMMIhJDNMOApLggEgSAQBIJAEAgCQSAIBIEgUAiEkBUSuQaBIBAEgkAQCAJBIAgEgSAQBGYYgRCyGQY8xQWBIBAEgkAQCAJBIAgEgSAQBAqBELJCItcgEASCQBAIAkEgCASBIBAEgsAMIxBCNsOAp7ggEASCQBAIAkEgCASBIBAEgkAhEEJWSOQaBIJAEAgCQSAIBIEgEASCQBCYYQRCyGYY8BQXBIJAEAgCQSAIBIEgEASCQBAoBELIColcg0AQCAJBIAgEgSAQBIJAEAgCM4xACNkMA57igkAQCAJBIAgEgSAQBIJAEAgChcC8W2+9tb7nGgSCQBAIAkEgCASBIBAEgkAQCAJd1y233HIzgsO8mSpoRlqTQoJAEAgCQSAIBIEgEASCQBAIAmOEQLYsjlFnpapBIAgEgSAQBIJAEAgCQSAIzC4EQshmV3+mNUEgCASBIBAEgkAQCAJBIAiMEQIhZGPUWalqEAgCQSAIBIEgEASCQBAIArMLgRCy2dWfaU0QCAJBIAgEgSAQBIJAEAgCY4RACNkYdVaqGgSCQBAIAkEgCASBIBAEgsDsQiCEbHb1Z1oTBIJAEAgCQSAIBIEgEASCwBghEEI2Rp2VqgaBIBAEgkAQCAJBIAgEgSAwuxCYYUJ2S3fdt87rzv3qFd1v/3FLN+wnqW/4+Te7i3/6j+7mW5YQ6L9e1p1x2KHdh8/6QfePmxY9sxv+8Mvu6qt+2f3xhluH1rO78frusosu7X5z4/zt+OfvftFdfdWvuz/fNEm67l/dH355dXfVb/7c3Zwf5V7CTk7yIBAEgkAQCAJBIAgEgSAw3gjMLCG75frugvf/e7f79rt0B3/9L92NN88P3i0/PaHbc5vtuu13/a/uwl//s7t5GGObP8mk/93y54u749/99u6gky7p/rbIhOzG7oqj/q3bbNPdu6N+9PfuxtvxuZu7Kw7fvdt2pz2693zu+u5fExW9ofvG+3fsNt103+6Ua//e3TSs/jde0R29+2bdZq8/vfvNP28aTvYmbVUeBIEgEASCQBAIAkEgCASBIDCbEPj/lfxdyw4BH4sAAAAASUVORK5CYII=;" parent="1" vertex="1">
          <mxGeometry x="120" y="120" width="728" height="312" as="geometry" />
        </mxCell>
        <mxCell id="BGL98zv2xkj8la9WDETW-4" value="&lt;b&gt;对象头不同状态下的数据结构&lt;/b&gt;" style="text;html=1;strokeColor=none;fillColor=none;align=center;verticalAlign=middle;whiteSpace=wrap;rounded=0;" parent="1" vertex="1">
          <mxGeometry x="30" y="150" width="20" height="180" as="geometry" />
        </mxCell>
        <mxCell id="BGL98zv2xkj8la9WDETW-14" style="edgeStyle=orthogonalEdgeStyle;rounded=0;orthogonalLoop=1;jettySize=auto;html=1;exitX=0.5;exitY=1;exitDx=0;exitDy=0;entryX=0.5;entryY=0;entryDx=0;entryDy=0;curved=1;" parent="1" source="BGL98zv2xkj8la9WDETW-5" target="BGL98zv2xkj8la9WDETW-10" edge="1">
          <mxGeometry relative="1" as="geometry" />
        </mxCell>
        <mxCell id="BGL98zv2xkj8la9WDETW-5" value="偏向锁" style="rounded=1;whiteSpace=wrap;html=1;" parent="1" vertex="1">
          <mxGeometry x="280" y="540" width="120" height="60" as="geometry" />
        </mxCell>
        <mxCell id="BGL98zv2xkj8la9WDETW-15" style="edgeStyle=orthogonalEdgeStyle;rounded=0;orthogonalLoop=1;jettySize=auto;html=1;exitX=0.5;exitY=1;exitDx=0;exitDy=0;entryX=0.5;entryY=0;entryDx=0;entryDy=0;curved=1;" parent="1" source="BGL98zv2xkj8la9WDETW-6" target="BGL98zv2xkj8la9WDETW-11" edge="1">
          <mxGeometry relative="1" as="geometry" />
        </mxCell>
        <mxCell id="BGL98zv2xkj8la9WDETW-6" value="轻量级锁" style="rounded=1;whiteSpace=wrap;html=1;" parent="1" vertex="1">
          <mxGeometry x="480" y="540" width="120" height="60" as="geometry" />
        </mxCell>
        <mxCell id="BGL98zv2xkj8la9WDETW-16" style="edgeStyle=orthogonalEdgeStyle;rounded=0;orthogonalLoop=1;jettySize=auto;html=1;exitX=0.5;exitY=1;exitDx=0;exitDy=0;entryX=0.5;entryY=0;entryDx=0;entryDy=0;curved=1;" parent="1" source="BGL98zv2xkj8la9WDETW-7" target="BGL98zv2xkj8la9WDETW-12" edge="1">
          <mxGeometry relative="1" as="geometry" />
        </mxCell>
        <mxCell id="BGL98zv2xkj8la9WDETW-7" value="重量级锁" style="rounded=1;whiteSpace=wrap;html=1;" parent="1" vertex="1">
          <mxGeometry x="690" y="540" width="120" height="60" as="geometry" />
        </mxCell>
        <mxCell id="BGL98zv2xkj8la9WDETW-9" value="初始状态" style="text;html=1;strokeColor=none;fillColor=none;align=center;verticalAlign=middle;whiteSpace=wrap;rounded=0;" parent="1" vertex="1">
          <mxGeometry x="10" y="750" width="120" height="40" as="geometry" />
        </mxCell>
        <mxCell id="BGL98zv2xkj8la9WDETW-10" value="没有关掉偏向锁的前提下(且偏向锁启动延迟)：Mark Word记录线程id，是否为偏向锁，在我目前理解偏向锁标志位为1，表示为偏向锁，下次线程访问即可判断线程id是否为自己" style="text;html=1;strokeColor=none;fillColor=none;align=left;verticalAlign=middle;whiteSpace=wrap;rounded=0;" parent="1" vertex="1">
          <mxGeometry x="100" y="790" width="360" height="120" as="geometry" />
        </mxCell>
        <mxCell id="BGL98zv2xkj8la9WDETW-11" value="CAS+自旋转操作等待线程释放锁，不涉及内核对象" style="text;html=1;strokeColor=none;fillColor=none;align=left;verticalAlign=middle;whiteSpace=wrap;rounded=0;" parent="1" vertex="1">
          <mxGeometry x="490" y="740" width="120" height="40" as="geometry" />
        </mxCell>
        <mxCell id="BGL98zv2xkj8la9WDETW-12" value="Mutex对象来控制线程访问资源，这个时候线程的状态会交给操作系统控制，因为Mutex对象是内核对象，开销大，且进程需要在用户态和内核态之间切换" style="text;html=1;strokeColor=none;fillColor=none;align=left;verticalAlign=middle;whiteSpace=wrap;rounded=0;" parent="1" vertex="1">
          <mxGeometry x="820" y="750" width="140" height="110" as="geometry" />
        </mxCell>
        <mxCell id="BGL98zv2xkj8la9WDETW-17" value="&lt;h1&gt;monitor&lt;/h1&gt;&lt;div&gt;存储锁信息，waitset等数据&lt;/div&gt;" style="text;html=1;strokeColor=none;fillColor=none;spacing=5;spacingTop=-20;whiteSpace=wrap;overflow=hidden;rounded=0;" parent="1" vertex="1">
          <mxGeometry x="10" y="940" width="190" height="120" as="geometry" />
        </mxCell>
      </root>
    </mxGraphModel>
  </diagram>
</mxfile>
